999
dxfrw 0.6.3
  0
SECTION
  2
HEADER
  9
$ACADVER
  1
AC1021
  9
$DWGCODEPAGE
  3
ANSI_1252
  9
$INSBASE
 10
0
 20
0
 30
0
  9
$EXTMIN
 10
-181.5002658981836
 20
-49.80677280909251
 30
0
  9
$EXTMAX
 10
162.8751855555556
 20
215
 30
0
  9
$LIMMIN
 10
0
 20
0
  9
$LIMMAX
 10
420
 20
297
  9
$ORTHOMODE
 70
    0
  9
$REGENMODE
 70
    1
  9
$FILLMODE
 70
    1
  9
$QTEXTMODE
 70
    0
  9
$MIRRTEXT
 70
    0
  9
$LTSCALE
 40
1
  9
$ATTMODE
 70
    0
  9
$TEXTSIZE
 40
2.5
  9
$TRACEWID
 40
15.68
  9
$TEXTSTYLE
  7
STANDARD
  9
$CLAYER
  8
0
  9
$CELTYPE
  6
BYLAYER
  9
$CECOLOR
 62
  256
  9
$CELTSCALE
 40
1
  9
$DISPSILH
 70
    0
  9
$DIMSCALE
 40
2.5
  9
$DIMASZ
 40
2.5
  9
$DIMEXO
 40
0.625
  9
$DIMDLI
 40
3.75
  9
$DIMRND
 40
0
  9
$DIMDLE
 40
0
  9
$DIMEXE
 40
1.25
  9
$DIMTP
 40
0
  9
$DIMTM
 40
0
  9
$DIMTXT
 40
2.5
  9
$DIMCEN
 40
2.5
  9
$DIMTSZ
 40
0
  9
$DIMTOL
 70
    0
  9
$DIMLIM
 70
    0
  9
$DIMTIH
 70
    0
  9
$DIMTOH
 70
    0
  9
$DIMSE1
 70
    0
  9
$DIMSE2
 70
    0
  9
$DIMTAD
 70
    1
  9
$DIMZIN
 70
    8
  9
$DIMBLK
  1

  9
$DIMASO
 70
    1
  9
$DIMSHO
 70
    1
  9
$DIMPOST
  1

  9
$DIMAPOST
  1

  9
$DIMALT
 70
    0
  9
$DIMALTD
 70
    3
  9
$DIMALTF
 40
0.03937
  9
$DIMLFAC
 40
1
  9
$DIMTOFL
 70
    1
  9
$DIMTVP
 40
0
  9
$DIMTIX
 70
    0
  9
$DIMSOXD
 70
    0
  9
$DIMSAH
 70
    0
  9
$DIMBLK1
  1

  9
$DIMBLK2
  1

  9
$DIMSTYLE
  2
Standard
  9
$DIMCLRD
 70
    0
  9
$DIMCLRE
 70
    0
  9
$DIMCLRT
 70
    0
  9
$DIMTFAC
 40
1
  9
$DIMGAP
 40
0.625
  9
$DIMJUST
 70
    0
  9
$DIMSD1
 70
    0
  9
$DIMSD2
 70
    0
  9
$DIMTOLJ
 70
    0
  9
$DIMTZIN
 70
    8
  9
$DIMALTZ
 70
    0
  9
$DIMALTTZ
 70
    0
  9
$DIMUPT
 70
    0
  9
$DIMDEC
 70
    2
  9
$DIMTDEC
 70
    2
  9
$DIMALTU
 70
    2
  9
$DIMALTTD
 70
    3
  9
$DIMTXSTY
  7
standard
  9
$DIMAUNIT
 70
    0
  9
$DIMADEC
 70
    0
  9
$DIMALTRND
 40
0
  9
$DIMAZIN
 70
    0
  9
$DIMDSEP
 70
   44
  9
$DIMATFIT
 70
    3
  9
$DIMFRAC
 70
    0
  9
$DIMLDRBLK
  1
STANDARD
  9
$DIMLUNIT
 70
    2
  9
$DIMLWD
 70
   -2
  9
$DIMLWE
 70
   -2
  9
$DIMTMOVE
 70
    0
  9
$DIMFXL
 40
1
  9
$DIMFXLON
 70
    0
  9
$DIMJOGANG
 40
0.7854
  9
$DIMTFILL
 70
    0
  9
$DIMTFILLCLR
 70
    0
  9
$DIMARCSYM
 70
    0
  9
$DIMLTYPE
  6

  9
$DIMLTEX1
  6

  9
$DIMLTEX2
  6

  9
$LUNITS
 70
    2
  9
$LUPREC
 70
    4
  9
$SKETCHINC
 40
1
  9
$FILLETRAD
 40
0
  9
$AUNITS
 70
    0
  9
$AUPREC
 70
    2
  9
$MENU
  1
.
  9
$ELEVATION
 40
0
  9
$PELEVATION
 40
0
  9
$THICKNESS
 40
0
  9
$LIMCHECK
 70
    0
  9
$CHAMFERA
 40
0
  9
$CHAMFERB
 40
0
  9
$CHAMFERC
 40
0
  9
$CHAMFERD
 40
0
  9
$SKPOLY
 70
    0
  9
$USRTIMER
 70
    1
  9
$ANGBASE
 50
0
  9
$ANGDIR
 70
    0
  9
$PDMODE
 70
   34
  9
$PDSIZE
 40
0
  9
$PLINEWID
 40
0
  9
$SPLFRAME
 70
    0
  9
$SPLINETYPE
 70
    2
  9
$SPLINESEGS
 70
    8
  9
$HANDSEED
  5
20000
  9
$SURFTAB1
 70
    6
  9
$SURFTAB2
 70
    6
  9
$SURFTYPE
 70
    6
  9
$SURFU
 70
    6
  9
$SURFV
 70
    6
  9
$UCSBASE
  2

  9
$UCSNAME
  2

  9
$UCSORG
 10
0
 20
0
 30
0
  9
$UCSXDIR
 10
1
 20
0
 30
0
  9
$UCSYDIR
 10
0
 20
1
 30
0
  9
$UCSORTHOREF
  2

  9
$UCSORTHOVIEW
 70
    0
  9
$UCSORGTOP
 10
0
 20
0
 30
0
  9
$UCSORGBOTTOM
 10
0
 20
0
 30
0
  9
$UCSORGLEFT
 10
0
 20
0
 30
0
  9
$UCSORGRIGHT
 10
0
 20
0
 30
0
  9
$UCSORGFRONT
 10
0
 20
0
 30
0
  9
$UCSORGBACK
 10
0
 20
0
 30
0
  9
$PUCSBASE
  2

  9
$PUCSNAME
  2

  9
$PUCSORG
 10
0
 20
0
 30
0
  9
$PUCSXDIR
 10
1
 20
0
 30
0
  9
$PUCSYDIR
 10
0
 20
1
 30
0
  9
$PUCSORTHOREF
  2

  9
$PUCSORTHOVIEW
 70
    0
  9
$PUCSORGTOP
 10
0
 20
0
 30
0
  9
$PUCSORGBOTTOM
 10
0
 20
0
 30
0
  9
$PUCSORGLEFT
 10
0
 20
0
 30
0
  9
$PUCSORGRIGHT
 10
0
 20
0
 30
0
  9
$PUCSORGFRONT
 10
0
 20
0
 30
0
  9
$PUCSORGBACK
 10
0
 20
0
 30
0
  9
$USERI1
 70
    0
  9
$USERI2
 70
    0
  9
$USERI3
 70
    0
  9
$USERI4
 70
    0
  9
$USERI5
 70
    0
  9
$USERR1
 40
0
  9
$USERR2
 40
0
  9
$USERR3
 40
0
  9
$USERR4
 40
0
  9
$USERR5
 40
0
  9
$WORLDVIEW
 70
    1
  9
$SHADEDGE
 70
    3
  9
$SHADEDIF
 70
   70
  9
$TILEMODE
 70
    1
  9
$MAXACTVP
 70
   64
  9
$PINSBASE
 10
127.3399482158915
 20
-11.02458237593839
 30
0
  9
$PLIMCHECK
 70
    0
  9
$PEXTMIN
 10
0
 20
0
 30
0
  9
$PEXTMAX
 10
0
 20
0
 30
0
  9
$GRIDMODE
 70
    1
  9
$SNAPSTYLE
 70
    0
  9
$GRIDUNIT
 10
0
 20
0
  9
$PLIMMIN
 10
0
 20
0
  9
$PLIMMAX
 10
297
 20
210
  9
$UNITMODE
 70
    0
  9
$VISRETAIN
 70
    1
  9
$PLINEGEN
 70
    0
  9
$PSLTSCALE
 70
    1
  9
$TREEDEPTH
 70
 3020
  9
$CMLSTYLE
  2
Standard
  9
$CMLJUST
 70
    0
  9
$CMLSCALE
 40
20
  9
$PROXYGRAPHICS
 70
    1
  9
$MEASUREMENT
 70
    1
  9
$CELWEIGHT
370
   -1
  9
$ENDCAPS
280
    0
  9
$JOINSTYLE
280
    0
  9
$LWDISPLAY
290
    0
  9
$INSUNITS
 70
    4
  9
$HYPERLINKBASE
  1

  9
$STYLESHEET
  1

  9
$XEDIT
290
    1
  9
$CEPSNTYPE
380
    0
  9
$PSTYLEMODE
290
    1
  9
$EXTNAMES
290
    1
  9
$PSVPSCALE
 40
1
  9
$OLESTARTUP
290
    0
  9
$SORTENTS
280
  127
  9
$INDEXCTL
280
    0
  9
$HIDETEXT
280
    1
  9
$XCLIPFRAME
290
    0
  9
$HALOGAP
280
    0
  9
$OBSCOLOR
 70
  257
  9
$OBSLTYPE
280
    0
  9
$INTERSECTIONDISPLAY
280
    0
  9
$INTERSECTIONCOLOR
 70
  257
  9
$DIMASSOC
280
    1
  9
$PROJECTNAME
  1

  9
$CAMERADISPLAY
290
    0
  9
$LENSLENGTH
 40
50
  9
$CAMERAHEIGHT
 40
0
  9
$STEPSPERSEC
 40
2
  9
$STEPSIZE
 40
50
  9
$3DDWFPREC
 40
2
  9
$PSOLWIDTH
 40
5
  9
$PSOLHEIGHT
 40
80
  9
$LOFTANG1
 40
1.570796326794897
  9
$LOFTANG2
 40
1.570796326794897
  9
$LOFTMAG1
 40
0
  9
$LOFTMAG2
 40
0
  9
$LOFTPARAM
 70
    7
  9
$LOFTNORMALS
280
    1
  9
$LATITUDE
 40
1
  9
$LONGITUDE
 40
1
  9
$NORTHDIRECTION
 40
0
  9
$TIMEZONE
 70
-8000
  9
$LIGHTGLYPHDISPLAY
280
    1
  9
$TILEMODELIGHTSYNCH
280
    1
  9
$SOLIDHIST
280
    1
  9
$SHOWHIST
280
    1
  9
$DWFFRAME
280
    2
  9
$DGNFRAME
280
    0
  9
$REALWORLDSCALE
290
    1
  9
$INTERFERECOLOR
 62
    1
  9
$CSHADOW
280
    0
  9
$SHADOWPLANELOCATION
 40
0
  0
ENDSEC
  0
SECTION
  2
CLASSES
  0
ENDSEC
  0
SECTION
  2
TABLES
  0
TABLE
  2
VPORT
  5
8
330
0
100
AcDbSymbolTable
 70
    1
  0
VPORT
  5
31
330
2
100
AcDbSymbolTableRecord
100
AcDbViewportTableRecord
  2
*ACTIVE
 70
    0
 10
0
 20
0
 11
1
 21
1
 12
211.8691860242635
 22
174.4045128858267
 13
0
 23
0
 14
10
 24
10
 15
10
 25
10
 16
0
 26
0
 36
1
 17
0
 27
0
 37
0
 40
516.1081696139835
 41
1.632040050062578
 42
50
 43
0
 44
0
 50
0
 51
0
 71
    0
 72
  100
 73
    1
 74
    3
 75
    0
 76
    1
 77
    0
 78
    0
281
    0
 65
    1
110
0
120
0
130
0
111
1
121
0
131
0
112
0
122
1
132
0
 79
    0
146
0
348
10020
 60
    7
 61
    5
292
1
282
    1
141
0
142
0
 63
  250
421
3358443
  0
ENDTAB
  0
TABLE
  2
LTYPE
  5
5
330
0
100
AcDbSymbolTable
 70
    4
  0
LTYPE
  5
14
330
5
100
AcDbSymbolTableRecord
100
AcDbLinetypeTableRecord
  2
ByBlock
 70
    0
  3

 72
   65
 73
    0
 40
0
  0
LTYPE
  5
15
330
5
100
AcDbSymbolTableRecord
100
AcDbLinetypeTableRecord
  2
ByLayer
 70
    0
  3

 72
   65
 73
    0
 40
0
  0
LTYPE
  5
16
330
5
100
AcDbSymbolTableRecord
100
AcDbLinetypeTableRecord
  2
Continuous
 70
    0
  3
Solid line
 72
   65
 73
    0
 40
0
  0
LTYPE
  5
32
330
5
100
AcDbSymbolTableRecord
100
AcDbLinetypeTableRecord
  2
DOT
 70
    0
  3
Dot . . . . . . . . . . . . . . . . . . . . . .
 72
   65
 73
    2
 40
6.35
 49
0
 74
    0
 49
-6.35
 74
    0
  0
LTYPE
  5
33
330
5
100
AcDbSymbolTableRecord
100
AcDbLinetypeTableRecord
  2
DOTTINY
 70
    0
  3
Dot (.15x) .....................................
 72
   65
 73
    2
 40
0.9525
 49
0
 74
    0
 49
-0.9525
 74
    0
  0
LTYPE
  5
34
330
5
100
AcDbSymbolTableRecord
100
AcDbLinetypeTableRecord
  2
DOT2
 70
    0
  3
Dot (.5x) .....................................
 72
   65
 73
    2
 40
3.175
 49
0
 74
    0
 49
-3.175
 74
    0
  0
LTYPE
  5
35
330
5
100
AcDbSymbolTableRecord
100
AcDbLinetypeTableRecord
  2
DOTX2
 70
    0
  3
Dot (2x) .  .  .  .  .  .  .  .  .  .  .  .  .
 72
   65
 73
    2
 40
12.7
 49
0
 74
    0
 49
-12.7
 74
    0
  0
LTYPE
  5
36
330
5
100
AcDbSymbolTableRecord
100
AcDbLinetypeTableRecord
  2
DASHED
 70
    0
  3
Dashed _ _ _ _ _ _ _ _ _ _ _ _ _ _ _ _ _
 72
   65
 73
    2
 40
19.05
 49
12.7
 74
    0
 49
-6.35
 74
    0
  0
LTYPE
  5
37
330
5
100
AcDbSymbolTableRecord
100
AcDbLinetypeTableRecord
  2
DASHEDTINY
 70
    0
  3
Dashed (.15x) _ _ _ _ _ _ _ _ _ _ _ _ _ _ _ _ _
 72
   65
 73
    2
 40
2.8575
 49
1.905
 74
    0
 49
-0.9525
 74
    0
  0
LTYPE
  5
38
330
5
100
AcDbSymbolTableRecord
100
AcDbLinetypeTableRecord
  2
DASHED2
 70
    0
  3
Dashed (.5x) _ _ _ _ _ _ _ _ _ _ _ _ _ _ _ _ _
 72
   65
 73
    2
 40
9.524999999999999
 49
6.35
 74
    0
 49
-3.175
 74
    0
  0
LTYPE
  5
39
330
5
100
AcDbSymbolTableRecord
100
AcDbLinetypeTableRecord
  2
DASHEDX2
 70
    0
  3
Dashed (2x) ____  ____  ____  ____  ____  ___
 72
   65
 73
    2
 40
38.09999999999999
 49
25.4
 74
    0
 49
-12.7
 74
    0
  0
LTYPE
  5
3A
330
5
100
AcDbSymbolTableRecord
100
AcDbLinetypeTableRecord
  2
DASHDOT
 70
    0
  3
Dash dot __ . __ . __ . __ . __ . __ . __ . __
 72
   65
 73
    4
 40
25.4
 49
12.7
 74
    0
 49
-6.35
 74
    0
 49
0
 74
    0
 49
-6.35
 74
    0
  0
LTYPE
  5
3B
330
5
100
AcDbSymbolTableRecord
100
AcDbLinetypeTableRecord
  2
DASHDOTTINY
 70
    0
  3
Dash dot (.15x) _._._._._._._._._._._._._._._.
 72
   65
 73
    4
 40
3.81
 49
1.905
 74
    0
 49
-0.9525
 74
    0
 49
0
 74
    0
 49
-0.9525
 74
    0
  0
LTYPE
  5
3C
330
5
100
AcDbSymbolTableRecord
100
AcDbLinetypeTableRecord
  2
DASHDOT2
 70
    0
  3
Dash dot (.5x) _._._._._._._._._._._._._._._.
 72
   65
 73
    4
 40
12.7
 49
6.35
 74
    0
 49
-3.175
 74
    0
 49
0
 74
    0
 49
-3.175
 74
    0
  0
LTYPE
  5
3D
330
5
100
AcDbSymbolTableRecord
100
AcDbLinetypeTableRecord
  2
DASHDOTX2
 70
    0
  3
Dash dot (2x) ____  .  ____  .  ____  .  ___
 72
   65
 73
    4
 40
50.8
 49
25.4
 74
    0
 49
-12.7
 74
    0
 49
0
 74
    0
 49
-12.7
 74
    0
  0
LTYPE
  5
3E
330
5
100
AcDbSymbolTableRecord
100
AcDbLinetypeTableRecord
  2
DIVIDE
 70
    0
  3
Divide ____ . . ____ . . ____ . . ____ . . ____
 72
   65
 73
    6
 40
31.75
 49
12.7
 74
    0
 49
-6.35
 74
    0
 49
0
 74
    0
 49
-6.35
 74
    0
 49
0
 74
    0
 49
-6.35
 74
    0
  0
LTYPE
  5
3F
330
5
100
AcDbSymbolTableRecord
100
AcDbLinetypeTableRecord
  2
DIVIDETINY
 70
    0
  3
Divide (.15x) __..__..__..__..__..__..__..__.._
 72
   65
 73
    6
 40
4.7625
 49
1.905
 74
    0
 49
-0.9525
 74
    0
 49
0
 74
    0
 49
-0.9525
 74
    0
 49
0
 74
    0
 49
-0.9525
 74
    0
  0
LTYPE
  5
40
330
5
100
AcDbSymbolTableRecord
100
AcDbLinetypeTableRecord
  2
DIVIDE2
 70
    0
  3
Divide (.5x) __..__..__..__..__..__..__..__.._
 72
   65
 73
    6
 40
15.875
 49
6.35
 74
    0
 49
-3.175
 74
    0
 49
0
 74
    0
 49
-3.175
 74
    0
 49
0
 74
    0
 49
-3.175
 74
    0
  0
LTYPE
  5
41
330
5
100
AcDbSymbolTableRecord
100
AcDbLinetypeTableRecord
  2
DIVIDEX2
 70
    0
  3
Divide (2x) ________  .  .  ________  .  .  _
 72
   65
 73
    6
 40
63.5
 49
25.4
 74
    0
 49
-12.7
 74
    0
 49
0
 74
    0
 49
-12.7
 74
    0
 49
0
 74
    0
 49
-12.7
 74
    0
  0
LTYPE
  5
42
330
5
100
AcDbSymbolTableRecord
100
AcDbLinetypeTableRecord
  2
BORDER
 70
    0
  3
Border __ __ . __ __ . __ __ . __ __ . __ __ .
 72
   65
 73
    6
 40
44.45
 49
12.7
 74
    0
 49
-6.35
 74
    0
 49
12.7
 74
    0
 49
-6.35
 74
    0
 49
0
 74
    0
 49
-6.35
 74
    0
  0
LTYPE
  5
43
330
5
100
AcDbSymbolTableRecord
100
AcDbLinetypeTableRecord
  2
BORDERTINY
 70
    0
  3
Border (.15x) __.__.__.__.__.__.__.__.__.__.__.
 72
   65
 73
    6
 40
6.6675
 49
1.905
 74
    0
 49
-0.9525
 74
    0
 49
1.905
 74
    0
 49
-0.9525
 74
    0
 49
0
 74
    0
 49
-0.9525
 74
    0
  0
LTYPE
  5
44
330
5
100
AcDbSymbolTableRecord
100
AcDbLinetypeTableRecord
  2
BORDER2
 70
    0
  3
Border (.5x) __.__.__.__.__.__.__.__.__.__.__.
 72
   65
 73
    6
 40
22.225
 49
6.35
 74
    0
 49
-3.175
 74
    0
 49
6.35
 74
    0
 49
-3.175
 74
    0
 49
0
 74
    0
 49
-3.175
 74
    0
  0
LTYPE
  5
45
330
5
100
AcDbSymbolTableRecord
100
AcDbLinetypeTableRecord
  2
BORDERX2
 70
    0
  3
Border (2x) ____  ____  .  ____  ____  .  ___
 72
   65
 73
    6
 40
88.89999999999999
 49
25.4
 74
    0
 49
-12.7
 74
    0
 49
25.4
 74
    0
 49
-12.7
 74
    0
 49
0
 74
    0
 49
-12.7
 74
    0
  0
LTYPE
  5
46
330
5
100
AcDbSymbolTableRecord
100
AcDbLinetypeTableRecord
  2
CENTER
 70
    0
  3
Center ____ _ ____ _ ____ _ ____ _ ____ _ ____
 72
   65
 73
    4
 40
50.8
 49
31.75
 74
    0
 49
-6.35
 74
    0
 49
6.35
 74
    0
 49
-6.35
 74
    0
  0
LTYPE
  5
47
330
5
100
AcDbSymbolTableRecord
100
AcDbLinetypeTableRecord
  2
CENTERTINY
 70
    0
  3
Center (.15x) ___ _ ___ _ ___ _ ___ _ ___ _ ___
 72
   65
 73
    4
 40
7.62
 49
4.7625
 74
    0
 49
-0.9525
 74
    0
 49
0.9525
 74
    0
 49
-0.9525
 74
    0
  0
LTYPE
  5
48
330
5
100
AcDbSymbolTableRecord
100
AcDbLinetypeTableRecord
  2
CENTER2
 70
    0
  3
Center (.5x) ___ _ ___ _ ___ _ ___ _ ___ _ ___
 72
   65
 73
    4
 40
28.575
 49
19.05
 74
    0
 49
-3.175
 74
    0
 49
3.175
 74
    0
 49
-3.175
 74
    0
  0
LTYPE
  5
49
330
5
100
AcDbSymbolTableRecord
100
AcDbLinetypeTableRecord
  2
CENTERX2
 70
    0
  3
Center (2x) ________  __  ________  __  _____
 72
   65
 73
    4
 40
101.6
 49
63.5
 74
    0
 49
-12.7
 74
    0
 49
12.7
 74
    0
 49
-12.7
 74
    0
  0
ENDTAB
  0
TABLE
  2
LAYER
  5
2
330
0
100
AcDbSymbolTable
 70
    1
  0
LAYER
  5
10
330
2
100
AcDbSymbolTableRecord
100
AcDbLayerTableRecord
  2
0
 70
    0
 62
    7
  6
CONTINUOUS
370
   -3
390
F
  0
ENDTAB
  0
TABLE
  2
STYLE
  5
3
330
0
100
AcDbSymbolTable
 70
    3
  0
STYLE
  5
4A
330
2
100
AcDbSymbolTableRecord
100
AcDbTextStyleTableRecord
  2
amiri-regular
 70
    0
 40
0
 41
1
 50
0
 71
    0
 42
1
  3
amiri-regular
  4

  0
STYLE
  5
4B
330
2
100
AcDbSymbolTableRecord
100
AcDbTextStyleTableRecord
  2
Standard
 70
    0
 40
0
 41
1
 50
0
 71
    0
 42
1
  3
txt
  4

  0
ENDTAB
  0
TABLE
  2
VIEW
  5
6
330
0
100
AcDbSymbolTable
 70
    0
  0
ENDTAB
  0
TABLE
  2
UCS
  5
7
330
0
100
AcDbSymbolTable
 70
    0
  0
ENDTAB
  0
TABLE
  2
APPID
  5
9
330
0
100
AcDbSymbolTable
 70
    1
  0
APPID
  5
12
330
9
100
AcDbSymbolTableRecord
100
AcDbRegAppTableRecord
  2
ACAD
 70
    0
  0
APPID
  5
4C
330
9
100
AcDbSymbolTableRecord
100
AcDbRegAppTableRecord
  2
LibreCad
 70
    0
  0
ENDTAB
  0
TABLE
  2
DIMSTYLE
  5
A
330
0
100
AcDbSymbolTable
 70
    1
100
AcDbDimStyleTable
 71
    1
  0
DIMSTYLE
105
4D
330
A
100
AcDbSymbolTableRecord
100
AcDbDimStyleTableRecord
  2
Standard
 70
    0
 40
2.5
 41
2.5
 42
0.625
 43
0.38
 44
1.25
 45
0
 46
0
 47
0
 48
0
 49
1
140
2.5
141
0.09
142
0
143
25.4
144
1
145
0
146
1
147
0.625
148
0
 71
    0
 72
    0
 73
    0
 74
    1
 75
    0
 76
    0
 77
    0
 78
    8
 79
    0
170
    0
171
    2
172
    0
173
    0
174
    0
175
    0
176
    0
177
    0
178
    0
179
    0
271
    2
272
    4
273
    2
274
    2
275
    0
276
    0
277
    2
278
   44
279
    0
280
    0
281
    0
282
    0
283
    1
284
    0
285
    0
286
    0
288
    0
289
    3
340
standard
341

371
   -2
372
   -2
  0
ENDTAB
  0
TABLE
  2
BLOCK_RECORD
  5
1
330
0
100
AcDbSymbolTable
 70
    2
  0
BLOCK_RECORD
  5
1F
330
1
100
AcDbSymbolTableRecord
100
AcDbBlockTableRecord
  2
*Model_Space
 70
    0
280
    1
281
    0
  0
BLOCK_RECORD
  5
1E
330
1
100
AcDbSymbolTableRecord
100
AcDbBlockTableRecord
  2
*Paper_Space
 70
    0
280
    1
281
    0
  0
ENDTAB
  0
ENDSEC
  0
SECTION
  2
BLOCKS
  0
BLOCK
  5
20
330
1F
100
AcDbEntity
  8
0
100
AcDbBlockBegin
  2
*Model_Space
 70
    0
 10
0
 20
0
 30
0
  3
*Model_Space
  1

  0
ENDBLK
  5
21
330
1F
100
AcDbEntity
  8
0
100
AcDbBlockEnd
  0
BLOCK
  5
1C
330
1B
100
AcDbEntity
  8
0
100
AcDbBlockBegin
  2
*Paper_Space
 70
    0
 10
0
 20
0
 30
0
  3
*Paper_Space
  1

  0
ENDBLK
  5
1D
330
1F
100
AcDbEntity
  8
0
100
AcDbBlockEnd
  0
ENDSEC
  0
SECTION
  2
ENTITIES
  0
HATCH
  5
4E
100
AcDbEntity
  8
0
  6
ByLayer
 62
  256
370
   -1
100
AcDbHatch
 10
0
 20
0
 30
0
210
0
220
0
230
1
  2
SOLID
 70
    1
 71
    0
 91
    1
 92
    0
 93
  140
 72
    1
 10
80
 20
95
 11
60
 21
95
 72
    1
 10
60
 20
95
 11
60
 21
75
 72
    1
 10
60
 20
75
 11
80
 21
75
 72
    1
 10
80
 20
75
 11
80
 21
95
 72
    1
 10
80
 20
95
 11
100
 21
95
 72
    1
 10
100
 20
95
 11
100
 21
115
 72
    1
 10
100
 20
115
 11
80
 21
115
 72
    1
 10
80
 20
115
 11
80
 21
95
 72
    1
 10
40
 20
95
 11
20
 21
95
 72
    1
 10
20
 20
95
 11
20
 21
75
 72
    1
 10
20
 20
75
 11
40
 21
75
 72
    1
 10
40
 20
75
 11
40
 21
95
 72
    1
 10
40
 20
95
 11
40
 21
115
 72
    1
 10
40
 20
115
 11
60
 21
115
 72
    1
 10
60
 20
115
 11
60
 21
95
 72
    1
 10
60
 20
95
 11
40
 21
95
 72
    1
 10
0
 20
95
 11
-20
 21
95
 72
    1
 10
-20
 20
95
 11
-20
 21
75
 72
    1
 10
-20
 20
75
 11
0
 21
75
 72
    1
 10
0
 20
75
 11
0
 21
95
 72
    1
 10
0
 20
95
 11
20
 21
95
 72
    1
 10
20
 20
95
 11
20
 21
115
 72
    1
 10
20
 20
115
 11
0
 21
115
 72
    1
 10
0
 20
115
 11
0
 21
95
 72
    1
 10
-40
 20
95
 11
-60
 21
95
 72
    1
 10
-60
 20
95
 11
-60
 21
75
 72
    1
 10
-60
 20
75
 11
-40
 21
75
 72
    1
 10
-40
 20
75
 11
-40
 21
95
 72
    1
 10
-40
 20
95
 11
-20
 21
95
 72
    1
 10
-20
 20
95
 11
-20
 21
115
 72
    1
 10
-20
 20
115
 11
-40
 21
115
 72
    1
 10
-40
 20
115
 11
-40
 21
95
 72
    1
 10
-80
 20
95
 11
-100
 21
95
 72
    1
 10
-100
 20
95
 11
-100
 21
75
 72
    1
 10
-100
 20
75
 11
-80
 21
75
 72
    1
 10
-80
 20
75
 11
-80
 21
95
 72
    1
 10
-80
 20
95
 11
-60
 21
95
 72
    1
 10
-60
 20
95
 11
-60
 21
115
 72
    1
 10
-60
 20
115
 11
-80
 21
115
 72
    1
 10
-80
 20
115
 11
-80
 21
95
 72
    1
 10
80
 20
135
 11
60
 21
135
 72
    1
 10
60
 20
135
 11
60
 21
115
 72
    1
 10
60
 20
115
 11
80
 21
115
 72
    1
 10
80
 20
115
 11
80
 21
135
 72
    1
 10
80
 20
135
 11
100
 21
135
 72
    1
 10
100
 20
135
 11
100
 21
155
 72
    1
 10
100
 20
155
 11
80
 21
155
 72
    1
 10
80
 20
155
 11
80
 21
135
 72
    1
 10
40
 20
135
 11
20
 21
135
 72
    1
 10
20
 20
135
 11
20
 21
115
 72
    1
 10
20
 20
115
 11
40
 21
115
 72
    1
 10
40
 20
115
 11
40
 21
135
 72
    1
 10
40
 20
135
 11
40
 21
155
 72
    1
 10
40
 20
155
 11
60
 21
155
 72
    1
 10
60
 20
155
 11
60
 21
135
 72
    1
 10
60
 20
135
 11
40
 21
135
 72
    1
 10
0
 20
135
 11
-20
 21
135
 72
    1
 10
-20
 20
135
 11
-20
 21
115
 72
    1
 10
-20
 20
115
 11
0
 21
115
 72
    1
 10
0
 20
115
 11
0
 21
135
 72
    1
 10
0
 20
135
 11
20
 21
135
 72
    1
 10
20
 20
135
 11
20
 21
155
 72
    1
 10
20
 20
155
 11
0
 21
155
 72
    1
 10
0
 20
155
 11
0
 21
135
 72
    1
 10
-40
 20
135
 11
-60
 21
135
 72
    1
 10
-60
 20
135
 11
-60
 21
115
 72
    1
 10
-60
 20
115
 11
-40
 21
115
 72
    1
 10
-40
 20
115
 11
-40
 21
135
 72
    1
 10
-40
 20
135
 11
-20
 21
135
 72
    1
 10
-20
 20
135
 11
-20
 21
155
 72
    1
 10
-20
 20
155
 11
-40
 21
155
 72
    1
 10
-40
 20
155
 11
-40
 21
135
 72
    1
 10
-80
 20
135
 11
-100
 21
135
 72
    1
 10
-100
 20
135
 11
-100
 21
115
 72
    1
 10
-100
 20
115
 11
-80
 21
115
 72
    1
 10
-80
 20
115
 11
-80
 21
135
 72
    1
 10
-80
 20
135
 11
-60
 21
135
 72
    1
 10
-60
 20
135
 11
-60
 21
155
 72
    1
 10
-60
 20
155
 11
-80
 21
155
 72
    1
 10
-80
 20
155
 11
-80
 21
135
 72
    1
 10
80
 20
175
 11
60
 21
175
 72
    1
 10
60
 20
175
 11
60
 21
155
 72
    1
 10
60
 20
155
 11
80
 21
155
 72
    1
 10
80
 20
155
 11
80
 21
175
 72
    1
 10
80
 20
175
 11
100
 21
175
 72
    1
 10
100
 20
175
 11
100
 21
195
 72
    1
 10
100
 20
195
 11
80
 21
195
 72
    1
 10
80
 20
195
 11
80
 21
175
 72
    1
 10
40
 20
175
 11
20
 21
175
 72
    1
 10
20
 20
175
 11
20
 21
155
 72
    1
 10
20
 20
155
 11
40
 21
155
 72
    1
 10
40
 20
155
 11
40
 21
175
 72
    1
 10
40
 20
175
 11
40
 21
195
 72
    1
 10
40
 20
195
 11
60
 21
195
 72
    1
 10
60
 20
195
 11
60
 21
175
 72
    1
 10
60
 20
175
 11
40
 21
175
 72
    1
 10
0
 20
175
 11
-20
 21
175
 72
    1
 10
-20
 20
175
 11
-20
 21
155
 72
    1
 10
-20
 20
155
 11
0
 21
155
 72
    1
 10
0
 20
155
 11
0
 21
175
 72
    1
 10
0
 20
175
 11
20
 21
175
 72
    1
 10
20
 20
175
 11
20
 21
195
 72
    1
 10
20
 20
195
 11
0
 21
195
 72
    1
 10
0
 20
195
 11
0
 21
175
 72
    1
 10
-40
 20
175
 11
-60
 21
175
 72
    1
 10
-60
 20
175
 11
-60
 21
155
 72
    1
 10
-60
 20
155
 11
-40
 21
155
 72
    1
 10
-40
 20
155
 11
-40
 21
175
 72
    1
 10
-40
 20
175
 11
-20
 21
175
 72
    1
 10
-20
 20
175
 11
-20
 21
195
 72
    1
 10
-20
 20
195
 11
-40
 21
195
 72
    1
 10
-40
 20
195
 11
-40
 21
175
 72
    1
 10
-80
 20
175
 11
-100
 21
175
 72
    1
 10
-100
 20
175
 11
-100
 21
155
 72
    1
 10
-100
 20
155
 11
-80
 21
155
 72
    1
 10
-80
 20
155
 11
-80
 21
175
 72
    1
 10
-80
 20
175
 11
-60
 21
175
 72
    1
 10
-60
 20
175
 11
-60
 21
195
 72
    1
 10
-60
 20
195
 11
-80
 21
195
 72
    1
 10
-80
 20
195
 11
-80
 21
175
 72
    1
 10
80
 20
215
 11
60
 21
215
 72
    1
 10
60
 20
215
 11
60
 21
195
 72
    1
 10
60
 20
195
 11
80
 21
195
 72
    1
 10
80
 20
195
 11
80
 21
215
 72
    1
 10
40
 20
215
 11
20
 21
215
 72
    1
 10
20
 20
215
 11
20
 21
195
 72
    1
 10
20
 20
195
 11
40
 21
195
 72
    1
 10
40
 20
195
 11
40
 21
215
 72
    1
 10
0
 20
215
 11
-20
 21
215
 72
    1
 10
-20
 20
215
 11
-20
 21
195
 72
    1
 10
-20
 20
195
 11
0
 21
195
 72
    1
 10
0
 20
195
 11
0
 21
215
 72
    1
 10
-40
 20
215
 11
-60
 21
215
 72
    1
 10
-60
 20
215
 11
-60
 21
195
 72
    1
 10
-60
 20
195
 11
-40
 21
195
 72
    1
 10
-40
 20
195
 11
-40
 21
215
 72
    1
 10
-80
 20
215
 11
-100
 21
215
 72
    1
 10
-100
 20
215
 11
-100
 21
195
 72
    1
 10
-100
 20
195
 11
-80
 21
195
 72
    1
 10
-80
 20
195
 11
-80
 21
215
 97
    0
 75
    0
 76
    1
 98
    0
  0
LWPOLYLINE
  5
4F
100
AcDbEntity
  8
0
  6
ByLayer
 62
  256
370
   -1
100
AcDbPolyline
 90
    4
 70
    1
 43
0
 10
-174.9501164372939
 20
12.9920650294217
 10
-174.9500961449937
 20
15.99206502935308
 10
-164.9500961452224
 20
15.99199738835237
 10
-164.9501164375226
 20
12.99199738842099
  0
LWPOLYLINE
  5
50
100
AcDbEntity
  8
0
  6
ByLayer
 62
  256
370
   -1
100
AcDbPolyline
 90
    4
 70
    1
 43
0
 10
-149.6235288449471
 20
12.99189371784876
 10
-149.6235085526469
 20
15.99189371778014
 10
-139.6235085528756
 20
15.99182607677943
 10
-139.6235288451759
 20
12.99182607684805
  0
LWPOLYLINE
  5
51
100
AcDbEntity
  8
0
  6
ByLayer
 62
  256
370
   -1
100
AcDbPolyline
 90
    4
 70
    1
 43
0
 10
-139.6237686670821
 20
-22.46328303863465
 10
-149.6237686668534
 20
-22.46321539763393
 10
-149.6237483745532
 20
-19.46321539770256
 10
-139.6237483747819
 20
-19.46328303870327
  0
LWPOLYLINE
  5
52
100
AcDbEntity
  8
0
  6
ByLayer
 62
  256
370
   -1
100
AcDbPolyline
 90
    4
 70
    1
 43
0
 10
-164.9503359671287
 20
-19.46311172713033
 10
-164.9503562594289
 20
-22.46311172706171
 10
-174.9503562592001
 20
-22.463044086061
 10
-174.9503359668999
 20
-19.46304408612962
  0
LINE
  5
53
100
AcDbEntity
  8
0
  6
ByLayer
 62
  256
370
   -1
100
AcDbLine
 10
-178.5000952565486
 20
2.764534483452818
 11
-181.5000952564799
 21
2.764554775753045
  0
LINE
  5
54
100
AcDbEntity
  8
0
  6
ByLayer
 62
  256
370
   -1
100
AcDbLine
 10
-181.5000952564799
 20
2.764554775753045
 11
-181.5001764256809
 21
-9.235445223972443
  0
LINE
  5
55
100
AcDbEntity
  8
0
  6
ByLayer
 62
  256
370
   -1
100
AcDbLine
 10
-181.5001764256809
 20
-9.235445223972443
 11
-178.5001764257495
 21
-9.235465516272669
  0
LINE
  5
56
100
AcDbEntity
  8
0
  6
ByLayer
 62
  256
370
   -1
100
AcDbLine
 10
-178.5001764257495
 20
-9.235465516272669
 11
-178.5002440667503
 21
-19.2354655160439
  0
LINE
  5
57
100
AcDbEntity
  8
0
  6
ByLayer
 62
  256
370
   -1
100
AcDbLine
 10
-178.5002440667503
 20
-19.2354655160439
 11
-181.5002440666816
 21
-19.23544522374367
  0
LINE
  5
58
100
AcDbEntity
  8
0
  6
ByLayer
 62
  256
370
   -1
100
AcDbLine
 10
-181.5002440666816
 20
-19.23544522374367
 11
-181.5002658981836
 21
-22.46299978181674
  0
LINE
  5
59
100
AcDbEntity
  8
0
  6
ByLayer
 62
  256
370
   -1
100
AcDbLine
 10
-181.5002658981836
 20
-22.46299978181674
 11
-27.32070492712463
 21
-49.64516915466707
  0
SPLINE
  5
5A
100
AcDbEntity
  8
0
  6
ByLayer
 62
  256
370
   -1
100
AcDbSpline
210
0
220
0
230
0
 70
    8
 71
    3
 72
   11
 73
    7
 74
    0
 42
1e-07
 43
1e-07
 40
0
 40
0
 40
0
 40
0
 40
0.0004929
 40
0.0004929
 40
0.0004929
 40
0.0009293999999999999
 40
0.0009293999999999999
 40
0.0009293999999999999
 40
0.0009293999999999999
 10
-26.40508840491757
 20
-49.8051376163862
 30
0
 10
-26.57173846343415
 20
-49.80513245625274
 30
0
 10
-26.73578815139187
 20
-49.78987004262051
 30
0
 10
-26.89733972945266
 20
-49.75991937143726
 30
0
 10
-27.0404391360524
 20
-49.73338961960796
 30
0
 10
-27.18250298178279
 20
-49.69496054274063
 30
0
 10
-27.32070492712463
 20
-49.64516915466707
 30
0
  0
LINE
  5
5B
100
AcDbEntity
  8
0
  6
ByLayer
 62
  256
370
   -1
100
AcDbLine
 10
-26.40508840491757
 20
-49.8051376163862
 11
26.40459136891704
 21
-49.80677280909251
  0
SPLINE
  5
5C
100
AcDbEntity
  8
0
  6
ByLayer
 62
  256
370
   -1
100
AcDbSpline
210
0
220
0
230
0
 70
    8
 71
    3
 72
   29
 73
   25
 74
    0
 42
1e-07
 43
1e-07
 40
0
 40
0
 40
0
 40
0
 40
0.0004929
 40
0.0004929
 40
0.0004929
 40
0.0009856999999999999
 40
0.0009856999999999999
 40
0.0009856999999999999
 40
0.0014786
 40
0.0014786
 40
0.0014786
 40
0.0019715
 40
0.0019715
 40
0.0019715
 40
0.0024644
 40
0.0024644
 40
0.0024644
 40
0.0029572
 40
0.0029572
 40
0.0029572
 40
0.0034501
 40
0.0034501
 40
0.0034501
 40
0.003942999999999999
 40
0.003942999999999999
 40
0.003942999999999999
 40
0.003942999999999999
 10
29.09087868839536
 20
-47.38341440640266
 30
0
 10
29.07380043061172
 20
-47.54919411560857
 30
0
 10
29.04180230451667
 20
-47.71082139585741
 30
0
 10
28.99544344439445
 20
-47.86845705929736
 30
0
 10
28.94908458427224
 20
-48.0260927227373
 30
0
 10
28.88776662212611
 20
-48.18086397412177
 30
0
 10
28.81267548225348
 20
-48.32878686536176
 30
0
 10
28.73758434238085
 20
-48.47670975660176
 30
0
 10
28.64993453512902
 20
-48.61587929232375
 30
0
 10
28.55005118077957
 20
-48.74652207994232
 30
0
 10
28.45016782643011
 20
-48.87716486756087
 30
0
 10
28.3366840406614
 20
-49.00039438445799
 30
0
 10
28.21397981522431
 20
-49.1111239906591
 30
0
 10
28.09127558978723
 20
-49.22185359686021
 30
0
 10
27.95971672845395
 20
-49.32030421798387
 30
0
 10
27.81939108166574
 20
-49.40659767831674
 30
0
 10
27.67906543487753
 20
-49.49289113864963
 30
0
 10
27.52855688788371
 20
-49.56734915748203
 30
0
 10
27.3747374127978
 20
-49.62654830679366
 30
0
 10
27.22091793771188
 20
-49.68574745610526
 30
0
 10
27.06286929721372
 20
-49.73065626324715
 30
0
 10
26.90050628898497
 20
-49.76097986830207
 30
0
 10
26.73814328075621
 20
-49.79130347335699
 30
0
 10
26.57124771165234
 20
-49.80677796941989
 30
0
 10
26.40459136891704
 20
-49.80677280909251
 30
0
  0
SPLINE
  5
5D
100
AcDbEntity
  8
0
  6
ByLayer
 62
  256
370
   -1
100
AcDbSpline
210
0
220
0
230
0
 70
    8
 71
    3
 72
   80
 73
   76
 74
    0
 42
1e-07
 43
1e-07
 40
0
 40
0
 40
0
 40
0
 40
0.0002963
 40
0.0002963
 40
0.0002963
 40
0.000794
 40
0.000794
 40
0.000794
 40
0.0009923
 40
0.0009923
 40
0.0009923
 40
0.00179
 40
0.00179
 40
0.00179
 40
0.0019845
 40
0.0019845
 40
0.0019845
 40
0.0037847
 40
0.0037847
 40
0.0037847
 40
0.0039691
 40
0.0039691
 40
0.0039691
 40
0.00778
 40
0.00778
 40
0.00778
 40
0.0079381
 40
0.0079381
 40
0.0079381
 40
0.0117758
 40
0.0117758
 40
0.0117758
 40
0.0119072
 40
0.0119072
 40
0.0119072
 40
0.0137735
 40
0.0137735
 40
0.0137735
 40
0.0138917
 40
0.0138917
 40
0.0138917
 40
0.0157712
 40
0.0157712
 40
0.0157712
 40
0.0158763
 40
0.0158763
 40
0.0158763
 40
0.0197666
 40
0.0197666
 40
0.0197666
 40
0.0198453
 40
0.0198453
 40
0.0198453
 40
0.0217643
 40
0.0217643
 40
0.0217643
 40
0.0218298
 40
0.0218298
 40
0.0218298
 40
0.0227631
 40
0.0227631
 40
0.0227631
 40
0.0228221
 40
0.0228221
 40
0.0228221
 40
0.0233182
 40
0.0233182
 40
0.0233182
 40
0.0237619
 40
0.0237619
 40
0.0237619
 40
0.0238144
 40
0.0238144
 40
0.0238144
 40
0.0317525
 40
0.0317525
 40
0.0317525
 40
0.0317525
 10
41.06018181750302
 20
-18.98956889121201
 30
0
 10
41.00876539545818
 20
-19.07456350921263
 30
0
 10
40.9573464952101
 20
-19.15956252921727
 30
0
 10
40.90592773319358
 20
-19.24456139810423
 30
0
 10
40.81956484107755
 20
-19.38732539816536
 30
0
 10
40.73329926909799
 20
-19.53015909310025
 30
0
 10
40.64684797954537
 20
-19.67282718626653
 30
0
 10
40.61241394892519
 20
-19.72965268319125
 30
0
 10
40.57771839486675
 20
-19.7862840029077
 30
0
 10
40.5427717939162
 20
-19.8427267921057
 30
0
 10
40.40213992566483
 20
-20.06986347144871
 30
0
 10
40.25746561811594
 20
-20.29392434579395
 30
0
 10
40.1093639003663
 20
-20.51537695005914
 30
0
 10
40.07325204339232
 20
-20.56937406024293
 30
0
 10
40.03693716215955
 20
-20.6232166328388
 30
0
 10
40.00042683945259
 20
-20.67691046776466
 30
0
 10
39.66253796654729
 20
-21.17382608011564
 30
0
 10
39.30796056414624
 20
-21.65804410199202
 30
0
 10
38.94271342885688
 20
-22.13414300920887
 30
0
 10
38.90530806027777
 20
-22.18290083201959
 30
0
 10
38.86779105577433
 20
-22.23157368537055
 30
0
 10
38.83016793044941
 20
-22.28016579392538
 30
0
 10
38.05244196094486
 20
-23.28463696450725
 30
0
 10
37.22949502897787
 20
-24.25476200586879
 30
0
 10
36.41027640960948
 20
-25.22759966081725
 30
0
 10
36.37628776555063
 20
-25.26796182056232
 30
0
 10
36.34230120013319
 20
-25.30832684944136
 30
0
 10
36.30832094756001
 20
-25.34869762164516
 30
0
 10
35.48357034921798
 20
-26.3285555099558
 30
0
 10
34.66201045388185
 20
-27.31205067037854
 30
0
 10
33.90564971851588
 20
-28.33880697789205
 30
0
 10
33.87974591501275
 20
-28.37397127502148
 30
0
 10
33.85392331420391
 20
-28.40918962659164
 30
0
 10
33.82818488473853
 20
-28.44446398113151
 30
0
 10
33.46271049828281
 20
-28.94534431263832
 30
0
 10
33.11427271833192
 20
-29.45766077642728
 30
0
 10
32.79115806940756
 20
-29.98677188425556
 30
0
 10
32.77068165760444
 20
-30.02030269745006
 30
0
 10
32.75030891414779
 20
-30.05390460082282
 30
0
 10
32.73004022954522
 20
-30.08757741714086
 30
0
 10
32.40794595145535
 20
-30.62267980172461
 30
0
 10
32.11224221867656
 20
-31.17601342087726
 30
0
 10
31.84467094609721
 20
-31.74691472765474
 30
0
 10
31.82970865965489
 20
-31.77883889051407
 30
0
 10
31.81484848143048
 20
-31.81079036494672
 30
0
 10
31.80008976353996
 20
-31.84276894725084
 30
0
 10
31.25377129919965
 20
-33.02650930368041
 30
0
 10
30.84665013008535
 20
-34.24766634184911
 30
0
 10
30.54657085669102
 20
-35.49762964125092
 30
0
 10
30.54049550610764
 20
-35.52293617166982
 30
0
 10
30.53446344152046
 20
-35.54825435207212
 30
0
 10
30.52847431708252
 20
-35.57358408988532
 30
0
 10
30.38255746876243
 20
-36.19070860429044
 30
0
 10
30.26213281876202
 20
-36.81469014000813
 30
0
 10
30.16220279782105
 20
-37.44418425796231
 30
0
 10
30.15878689358288
 20
-37.46570223229249
 30
0
 10
30.15539491533226
 20
-37.48722664219746
 30
0
 10
30.15202666316938
 20
-37.50875743390772
 30
0
 10
30.10410462084527
 20
-37.81508827308367
 30
0
 10
30.06108647103382
 20
-38.1227006095362
 30
0
 10
30.02214152666058
 20
-38.43147459934732
 30
0
 10
30.01967906342153
 20
-38.45099817580429
 30
0
 10
30.01723704774612
 20
-38.47052611951307
 30
0
 10
30.01481446660027
 20
-38.49005817373067
 30
0
 10
29.99444608030532
 20
-38.65427823551049
 30
0
 10
29.97553912477495
 20
-38.81876460674909
 30
0
 10
29.95750190798947
 20
-38.98337579857404
 30
0
 10
29.94137122819129
 20
-39.13058755846503
 30
0
 10
29.92589533913844
 20
-39.27790365601795
 30
0
 10
29.91071683030175
 20
-39.42520213288434
 30
0
 10
29.90892283346646
 20
-39.44261181417684
 30
0
 10
29.90712904468833
 20
-39.46002149242952
 30
0
 10
29.90533553984513
 20
-39.47743115535534
 30
0
 10
29.63384992270197
 20
-42.11275890570515
 30
0
 10
29.36236430554512
 20
-44.74808665605354
 30
0
 10
29.09087868839536
 20
-47.38341440640266
 30
0
  0
SPLINE
  5
5E
100
AcDbEntity
  8
0
  6
ByLayer
 62
  256
370
   -1
100
AcDbSpline
210
0
220
0
230
0
 70
    8
 71
    3
 72
  131
 73
  127
 74
    0
 42
1e-07
 43
1e-07
 40
0
 40
0
 40
0
 40
0
 40
0.0054009
 40
0.0054009
 40
0.0054009
 40
0.0054343
 40
0.0054343
 40
0.0054343
 40
0.0108018
 40
0.0108018
 40
0.0108018
 40
0.0108686
 40
0.0108686
 40
0.0108686
 40
0.0162027
 40
0.0162027
 40
0.0162027
 40
0.0163029
 40
0.0163029
 40
0.0163029
 40
0.0216035
 40
0.0216035
 40
0.0216035
 40
0.0217372
 40
0.0217372
 40
0.0217372
 40
0.024304
 40
0.024304
 40
0.024304
 40
0.0244544
 40
0.0244544
 40
0.0244544
 40
0.0270044
 40
0.0270044
 40
0.0270044
 40
0.0271715
 40
0.0271715
 40
0.0271715
 40
0.0324053
 40
0.0324053
 40
0.0324053
 40
0.0326058
 40
0.0326058
 40
0.0326058
 40
0.0351058
 40
0.0351058
 40
0.0351058
 40
0.035323
 40
0.035323
 40
0.035323
 40
0.0378062
 40
0.0378062
 40
0.0378062
 40
0.0380401
 40
0.0380401
 40
0.0380401
 40
0.0405067
 40
0.0405067
 40
0.0405067
 40
0.0407573
 40
0.0407573
 40
0.0407573
 40
0.0432071
 40
0.0432071
 40
0.0432071
 40
0.0434745
 40
0.0434745
 40
0.0434745
 40
0.048608
 40
0.048608
 40
0.048608
 40
0.0489087
 40
0.0489087
 40
0.0489087
 40
0.0513084
 40
0.0513084
 40
0.0513084
 40
0.0540089
 40
0.0540089
 40
0.0540089
 40
0.054343
 40
0.054343
 40
0.054343
 40
0.0594098
 40
0.0594098
 40
0.0594098
 40
0.05977739999999999
 40
0.05977739999999999
 40
0.05977739999999999
 40
0.0621102
 40
0.0621102
 40
0.0621102
 40
0.06249449999999999
 40
0.06249449999999999
 40
0.06249449999999999
 40
0.0648106
 40
0.0648106
 40
0.0648106
 40
0.06521159999999999
 40
0.06521159999999999
 40
0.06521159999999999
 40
0.0702115
 40
0.0702115
 40
0.0702115
 40
0.0706459
 40
0.0706459
 40
0.0706459
 40
0.0756124
 40
0.0756124
 40
0.0756124
 40
0.0760802
 40
0.0760802
 40
0.0760802
 40
0.07831289999999999
 40
0.07831289999999999
 40
0.07831289999999999
 40
0.07879739999999999
 40
0.07879739999999999
 40
0.07879739999999999
 40
0.0810133
 40
0.0810133
 40
0.0810133
 40
0.08151459999999999
 40
0.08151459999999999
 40
0.08151459999999999
 40
0.0864142
 40
0.0864142
 40
0.0864142
 40
0.0864142
 10
7.393054096029558
 20
47.2108576741168
 30
0
 10
9.17570804424502
 20
46.91883773259907
 30
0
 10
10.93279043974969
 20
46.52440845040181
 30
0
 10
12.66464747267626
 20
46.02895689965506
 30
0
 10
12.6753628333997
 20
46.02589143756072
 30
0
 10
12.68607723156071
 20
46.02282210697087
 30
0
 10
12.69679066716052
 20
46.01974890822697
 30
0
 10
14.41762311874214
 20
45.5261201297274
 30
0
 10
16.11509051056803
 20
44.93154838761799
 30
0
 10
17.77108645471521
 20
44.24057685859519
 30
0
 10
17.79170653813028
 20
44.23197303887193
 30
0
 10
17.81232026144851
 20
44.22335424907999
 30
0
 10
17.83292758918759
 20
44.21472049791326
 30
0
 10
19.47759520251802
 20
43.52566216365224
 30
0
 10
21.07814593565684
 20
42.74314676349191
 30
0
 10
22.62679644569574
 20
41.86898114116011
 30
0
 10
22.65590266128746
 20
41.85255157690302
 30
0
 10
22.68499075551318
 20
41.83608955969724
 30
0
 10
22.71406067431908
 20
41.81959510150034
 30
0
 10
24.25109008364469
 20
40.94747476608443
 30
0
 10
25.74270845096125
 20
39.98120365431798
 30
0
 10
27.16806309390478
 20
38.93603542758697
 30
0
 10
27.20400777672371
 20
38.90967830966669
 30
0
 10
27.23991102504892
 20
38.88327063218857
 30
0
 10
27.27577248443944
 20
38.85681265024472
 30
0
 10
27.96438596679471
 20
38.34876519785171
 30
0
 10
28.63855608165036
 20
37.82175677627949
 30
0
 10
29.29815384004478
 20
37.27603411097827
 30
0
 10
29.33679662525444
 20
37.24406274135049
 30
0
 10
29.37538925897841
 20
37.2120272789324
 30
0
 10
29.41393182073864
 20
37.17992769640028
 30
0
 10
30.06753758704491
 20
36.63558213967421
 30
0
 10
30.70758085277775
 20
36.07200693150365
 30
0
 10
31.33148189765538
 20
35.49142369405677
 30
0
 10
31.37235726230326
 20
35.45338632942349
 30
0
 10
31.41316208749815
 20
35.41527712220513
 30
0
 10
31.4538955914859
 20
35.37709676114665
 30
0
 10
32.72996002745926
 20
34.18101500707024
 30
0
 10
33.93369310883858
 20
32.91825433622381
 30
0
 10
35.06570437385959
 20
31.58833408378961
 30
0
 10
35.10906943951261
 20
31.53738752447333
 30
0
 10
35.15232932263157
 20
31.48634219102074
 30
0
 10
35.19548393993377
 20
31.43519817660504
 30
0
 10
35.73356805618996
 20
30.79749626846489
 30
0
 10
36.25584310858889
 20
30.1434892710114
 30
0
 10
36.75887051596153
 20
29.47723226362842
 30
0
 10
36.80257709113734
 20
29.4193431475429
 30
0
 10
36.8461398962732
 20
29.36135970713936
 30
0
 10
36.88955667862963
 20
29.3032845685666
 30
0
 10
37.38590758249571
 20
28.63935587652076
 30
0
 10
37.86367766190539
 20
27.96294067359176
 30
0
 10
38.32265269473745
 20
27.27413030111743
 30
0
 10
38.3658871539516
 20
27.2092458480977
 30
0
 10
38.40895519100825
 20
27.14425093134965
 30
0
 10
38.45185672394985
 20
27.07914549562562
 30
0
 10
38.90423418104623
 20
26.39263782476722
 30
0
 10
39.33795762681852
 20
25.69374823639479
 30
0
 10
39.75291671724626
 20
24.98240319598676
 30
0
 10
39.79507948113181
 20
24.91012553375032
 30
0
 10
39.83704987957484
 20
24.83771733464067
 30
0
 10
39.87882743257273
 20
24.7651790349716
 30
0
 10
40.28721118328956
 20
24.05610296986623
 30
0
 10
40.67710039732687
 20
23.33459744380101
 30
0
 10
41.0462394416779
 20
22.60510235467961
 30
0
 10
41.08652473140477
 20
22.52549029123278
 30
0
 10
41.12656647198277
 20
22.44577672238637
 30
0
 10
41.16636199520065
 20
22.36596687895252
 30
0
 10
41.93047643921561
 20
20.83353686644868
 30
0
 10
42.60692527719745
 20
19.26111916150059
 30
0
 10
43.19644524128778
 20
17.65031754510202
 30
0
 10
43.23097906483522
 20
17.55595748576715
 30
0
 10
43.26521828511054
 20
17.46145471708491
 30
0
 10
43.29916222676658
 20
17.36681162271499
 30
0
 10
43.57003244092166
 20
16.61156653361929
 30
0
 10
43.8211103167583
 20
15.84988413210771
 30
0
 10
44.05202531450862
 20
15.08343392878463
 30
0
 10
44.31187728945886
 20
14.22093646878913
 30
0
 10
44.54639770329622
 20
13.35178785900433
 30
0
 10
44.75570988443334
 20
12.47602230165995
 30
0
 10
44.78161153814035
 20
12.36764936286768
 30
0
 10
44.80712659978114
 20
12.25917643972723
 30
0
 10
44.83225474419602
 20
12.15060531717089
 30
0
 10
45.21324945007522
 20
10.5044422650027
 30
0
 10
45.50555425433344
 20
8.831342609242778
 30
0
 10
45.7043525738781
 20
7.153667361420844
 30
0
 10
45.71877611136479
 20
7.031945951084585
 30
0
 10
45.73271041727575
 20
6.910184793689451
 30
0
 10
45.74615334748336
 20
6.788393509573837
 30
0
 10
45.83146183837695
 20
6.015509139020322
 30
0
 10
45.89722770168355
 20
5.240487352358172
 30
0
 10
45.94308538547934
 20
4.463770321081696
 30
0
 10
45.9506397692857
 20
4.335817531548424
 30
0
 10
45.95765378497027
 20
4.207818603844467
 30
0
 10
45.96412619357334
 20
4.079771592202125
 30
0
 10
46.00313479396235
 20
3.308044247022637
 30
0
 10
46.02234748538947
 20
2.532899646858868
 30
0
 10
46.0217443058115
 20
1.759602219249377
 30
0
 10
46.02163988846247
 20
1.625735506357114
 30
0
 10
46.02094199319275
 20
1.491937440298506
 30
0
 10
46.01965069680854
 20
1.358236949349953
 30
0
 10
46.00354798704142
 20
-0.3090334215674933
 30
0
 10
45.89569406768766
 20
-1.961216240739829
 30
0
 10
45.70029123188404
 20
-3.599862378849668
 30
0
 10
45.68331389722189
 20
-3.742234129828198
 30
0
 10
45.66567531771136
 20
-3.884501323175247
 30
0
 10
45.64737831032937
 20
-4.026664389878293
 30
0
 10
45.43819591997072
 20
-5.651958050901925
 30
0
 10
45.14306605757989
 20
-7.263657115734867
 30
0
 10
44.76200221327089
 20
-8.861758439281477
 30
0
 10
44.72610690717246
 20
-9.012295775850403
 30
0
 10
44.68944788404218
 20
-9.162712395882833
 30
0
 10
44.65202536910408
 20
-9.313008293922792
 30
0
 10
44.47343482537634
 20
-10.03026169592981
 30
0
 10
44.27739922620667
 20
-10.74475626410529
 30
0
 10
44.06364844648894
 20
-11.45644821380517
 30
0
 10
44.01726299892911
 20
-11.61089045563066
 30
0
 10
43.97003805637969
 20
-11.76521805886645
 30
0
 10
43.92197240794449
 20
-11.91942191108173
 30
0
 10
43.70213213741789
 20
-12.62471181542901
 30
0
 10
43.4645761425428
 20
-13.32746938980788
 30
0
 10
43.21073618602919
 20
-14.02300225868047
 30
0
 10
43.15330673293573
 20
-14.18036153661484
 30
0
 10
43.09503535940306
 20
-14.33738058039565
 30
0
 10
43.03593320089782
 20
-14.4940203491281
 30
0
 10
42.45833704347923
 20
-16.02483632619214
 30
0
 10
41.7988158802372
 20
-17.52720467495936
 30
0
 10
41.06018181750348
 20
-18.98956889121225
 30
0
  0
ARC
  5
5F
100
AcDbEntity
  8
0
  6
ByLayer
 62
  256
370
   -1
100
AcDbCircle
 10
-0.006236544754287809
 20
12.91624089918864
 40
35.08376037037614
100
AcDbArc
 50
77.82469044796423
 51
102.154670873492
  0
SPLINE
  5
60
100
AcDbEntity
  8
0
  6
ByLayer
 62
  256
370
   -1
100
AcDbSpline
210
0
220
0
230
0
 70
    8
 71
    3
 72
   14
 73
   10
 74
    0
 42
1e-07
 43
1e-07
 40
0.0794362
 40
0.0794362
 40
0.0794362
 40
0.0794362
 40
0.0814621
 40
0.0814621
 40
0.0814621
 40
0.0814955
 40
0.0814955
 40
0.0814955
 40
0.08692849999999999
 40
0.08692849999999999
 40
0.08692849999999999
 40
0.08692849999999999
 10
-14.6435172648226
 20
45.41757361712165
 30
0
 10
-14.00351559156394
 20
45.63190495089809
 30
0
 10
-13.35896893199825
 20
45.83225287163103
 30
0
 10
-12.71151409203761
 20
46.01819563712507
 30
0
 10
-12.70085317261018
 20
46.02125735003337
 30
0
 10
-12.69019129628503
 20
46.0243152332314
 30
0
 10
-12.67952846299715
 20
46.02736928640927
 30
0
 10
-10.94288653558504
 20
46.52477899488513
 30
0
 10
-9.180877794191881
 20
46.92060209907477
 30
0
 10
-7.393173342612044
 20
47.21352076903298
 30
0
  0
LINE
  5
61
100
AcDbEntity
  8
0
  6
ByLayer
 62
  256
370
   -1
100
AcDbLine
 10
-14.6435172648226
 20
45.41757361712165
 11
-181.5000057839772
 21
15.99210933359734
  0
LINE
  5
62
100
AcDbEntity
  8
0
  6
ByLayer
 62
  256
370
   -1
100
AcDbLine
 10
-181.5000057839772
 20
15.99210933359734
 11
-181.5000276154792
 21
12.76455477552428
  0
LINE
  5
63
100
AcDbEntity
  8
0
  6
ByLayer
 62
  256
370
   -1
100
AcDbLine
 10
-181.5000276154792
 20
12.76455477552428
 11
-178.5000276155478
 21
12.76453448322405
  0
LINE
  5
64
100
AcDbEntity
  8
0
  6
ByLayer
 62
  256
370
   -1
100
AcDbLine
 10
-178.5000276155478
 20
12.76453448322405
 11
-178.5000952565486
 21
2.764534483452818
  0
CIRCLE
  5
65
100
AcDbEntity
  8
0
  6
ByLayer
 62
  256
370
   -1
100
AcDbCircle
 10
-4.619148202731952e-05
 20
4.359600057519761e-05
 40
3.249999999999999
  0
LWPOLYLINE
  5
66
100
AcDbEntity
  8
0
  6
ByLayer
 62
  256
370
   -1
100
AcDbPolyline
 90
    4
 70
    1
 43
0
 10
100
 20
75
 10
80
 20
75
 10
80
 20
95
 10
100
 20
95
  0
LWPOLYLINE
  5
67
100
AcDbEntity
  8
0
  6
ByLayer
 62
  256
370
   -1
100
AcDbPolyline
 90
    4
 70
    1
 43
0
 10
80
 20
95
 10
60
 20
95
 10
60
 20
75
 10
80
 20
75
  0
LWPOLYLINE
  5
68
100
AcDbEntity
  8
0
  6
ByLayer
 62
  256
370
   -1
100
AcDbPolyline
 90
    4
 70
    1
 43
0
 10
60
 20
95
 10
40
 20
95
 10
40
 20
75
 10
60
 20
75
  0
LWPOLYLINE
  5
69
100
AcDbEntity
  8
0
  6
ByLayer
 62
  256
370
   -1
100
AcDbPolyline
 90
    4
 70
    1
 43
0
 10
40
 20
95
 10
20
 20
95
 10
20
 20
75
 10
40
 20
75
  0
LWPOLYLINE
  5
6A
100
AcDbEntity
  8
0
  6
ByLayer
 62
  256
370
   -1
100
AcDbPolyline
 90
    4
 70
    1
 43
0
 10
20
 20
75
 10
0
 20
75
 10
0
 20
95
 10
20
 20
95
  0
LWPOLYLINE
  5
6B
100
AcDbEntity
  8
0
  6
ByLayer
 62
  256
370
   -1
100
AcDbPolyline
 90
    4
 70
    1
 43
0
 10
0
 20
95
 10
-20
 20
95
 10
-20
 20
75
 10
0
 20
75
  0
LWPOLYLINE
  5
6C
100
AcDbEntity
  8
0
  6
ByLayer
 62
  256
370
   -1
100
AcDbPolyline
 90
    4
 70
    1
 43
0
 10
-20
 20
75
 10
-40
 20
75
 10
-40
 20
95
 10
-20
 20
95
  0
LWPOLYLINE
  5
6D
100
AcDbEntity
  8
0
  6
ByLayer
 62
  256
370
   -1
100
AcDbPolyline
 90
    4
 70
    1
 43
0
 10
-40
 20
95
 10
-60
 20
95
 10
-60
 20
75
 10
-40
 20
75
  0
LWPOLYLINE
  5
6E
100
AcDbEntity
  8
0
  6
ByLayer
 62
  256
370
   -1
100
AcDbPolyline
 90
    4
 70
    1
 43
0
 10
-60
 20
75
 10
-80
 20
75
 10
-80
 20
95
 10
-60
 20
95
  0
LWPOLYLINE
  5
6F
100
AcDbEntity
  8
0
  6
ByLayer
 62
  256
370
   -1
100
AcDbPolyline
 90
    4
 70
    1
 43
0
 10
-80
 20
95
 10
-100
 20
95
 10
-100
 20
75
 10
-80
 20
75
  0
LWPOLYLINE
  5
70
100
AcDbEntity
  8
0
  6
ByLayer
 62
  256
370
   -1
100
AcDbPolyline
 90
    4
 70
    1
 43
0
 10
100
 20
95
 10
80
 20
95
 10
80
 20
115
 10
100
 20
115
  0
LWPOLYLINE
  5
71
100
AcDbEntity
  8
0
  6
ByLayer
 62
  256
370
   -1
100
AcDbPolyline
 90
    4
 70
    1
 43
0
 10
80
 20
115
 10
60
 20
115
 10
60
 20
95
 10
80
 20
95
  0
LWPOLYLINE
  5
72
100
AcDbEntity
  8
0
  6
ByLayer
 62
  256
370
   -1
100
AcDbPolyline
 90
    4
 70
    1
 43
0
 10
60
 20
115
 10
40
 20
115
 10
40
 20
95
 10
60
 20
95
  0
LWPOLYLINE
  5
73
100
AcDbEntity
  8
0
  6
ByLayer
 62
  256
370
   -1
100
AcDbPolyline
 90
    4
 70
    1
 43
0
 10
40
 20
115
 10
20
 20
115
 10
20
 20
95
 10
40
 20
95
  0
LWPOLYLINE
  5
74
100
AcDbEntity
  8
0
  6
ByLayer
 62
  256
370
   -1
100
AcDbPolyline
 90
    4
 70
    1
 43
0
 10
20
 20
95
 10
0
 20
95
 10
0
 20
115
 10
20
 20
115
  0
LWPOLYLINE
  5
75
100
AcDbEntity
  8
0
  6
ByLayer
 62
  256
370
   -1
100
AcDbPolyline
 90
    4
 70
    1
 43
0
 10
0
 20
115
 10
-20
 20
115
 10
-20
 20
95
 10
0
 20
95
  0
LWPOLYLINE
  5
76
100
AcDbEntity
  8
0
  6
ByLayer
 62
  256
370
   -1
100
AcDbPolyline
 90
    4
 70
    1
 43
0
 10
-20
 20
95
 10
-40
 20
95
 10
-40
 20
115
 10
-20
 20
115
  0
LWPOLYLINE
  5
77
100
AcDbEntity
  8
0
  6
ByLayer
 62
  256
370
   -1
100
AcDbPolyline
 90
    4
 70
    1
 43
0
 10
-40
 20
115
 10
-60
 20
115
 10
-60
 20
95
 10
-40
 20
95
  0
LWPOLYLINE
  5
78
100
AcDbEntity
  8
0
  6
ByLayer
 62
  256
370
   -1
100
AcDbPolyline
 90
    4
 70
    1
 43
0
 10
-60
 20
95
 10
-80
 20
95
 10
-80
 20
115
 10
-60
 20
115
  0
LWPOLYLINE
  5
79
100
AcDbEntity
  8
0
  6
ByLayer
 62
  256
370
   -1
100
AcDbPolyline
 90
    4
 70
    1
 43
0
 10
-80
 20
115
 10
-100
 20
115
 10
-100
 20
95
 10
-80
 20
95
  0
LWPOLYLINE
  5
7A
100
AcDbEntity
  8
0
  6
ByLayer
 62
  256
370
   -1
100
AcDbPolyline
 90
    4
 70
    1
 43
0
 10
100
 20
115
 10
80
 20
115
 10
80
 20
135
 10
100
 20
135
  0
LWPOLYLINE
  5
7B
100
AcDbEntity
  8
0
  6
ByLayer
 62
  256
370
   -1
100
AcDbPolyline
 90
    4
 70
    1
 43
0
 10
80
 20
135
 10
60
 20
135
 10
60
 20
115
 10
80
 20
115
  0
LWPOLYLINE
  5
7C
100
AcDbEntity
  8
0
  6
ByLayer
 62
  256
370
   -1
100
AcDbPolyline
 90
    4
 70
    1
 43
0
 10
60
 20
135
 10
40
 20
135
 10
40
 20
115
 10
60
 20
115
  0
LWPOLYLINE
  5
7D
100
AcDbEntity
  8
0
  6
ByLayer
 62
  256
370
   -1
100
AcDbPolyline
 90
    4
 70
    1
 43
0
 10
40
 20
135
 10
20
 20
135
 10
20
 20
115
 10
40
 20
115
  0
LWPOLYLINE
  5
7E
100
AcDbEntity
  8
0
  6
ByLayer
 62
  256
370
   -1
100
AcDbPolyline
 90
    4
 70
    1
 43
0
 10
20
 20
115
 10
0
 20
115
 10
0
 20
135
 10
20
 20
135
  0
LWPOLYLINE
  5
7F
100
AcDbEntity
  8
0
  6
ByLayer
 62
  256
370
   -1
100
AcDbPolyline
 90
    4
 70
    1
 43
0
 10
0
 20
135
 10
-20
 20
135
 10
-20
 20
115
 10
0
 20
115
  0
LWPOLYLINE
  5
80
100
AcDbEntity
  8
0
  6
ByLayer
 62
  256
370
   -1
100
AcDbPolyline
 90
    4
 70
    1
 43
0
 10
-20
 20
115
 10
-40
 20
115
 10
-40
 20
135
 10
-20
 20
135
  0
LWPOLYLINE
  5
81
100
AcDbEntity
  8
0
  6
ByLayer
 62
  256
370
   -1
100
AcDbPolyline
 90
    4
 70
    1
 43
0
 10
-40
 20
135
 10
-60
 20
135
 10
-60
 20
115
 10
-40
 20
115
  0
LWPOLYLINE
  5
82
100
AcDbEntity
  8
0
  6
ByLayer
 62
  256
370
   -1
100
AcDbPolyline
 90
    4
 70
    1
 43
0
 10
-60
 20
115
 10
-80
 20
115
 10
-80
 20
135
 10
-60
 20
135
  0
LWPOLYLINE
  5
83
100
AcDbEntity
  8
0
  6
ByLayer
 62
  256
370
   -1
100
AcDbPolyline
 90
    4
 70
    1
 43
0
 10
-80
 20
135
 10
-100
 20
135
 10
-100
 20
115
 10
-80
 20
115
  0
LWPOLYLINE
  5
84
100
AcDbEntity
  8
0
  6
ByLayer
 62
  256
370
   -1
100
AcDbPolyline
 90
    4
 70
    1
 43
0
 10
100
 20
135
 10
80
 20
135
 10
80
 20
155
 10
100
 20
155
  0
LWPOLYLINE
  5
85
100
AcDbEntity
  8
0
  6
ByLayer
 62
  256
370
   -1
100
AcDbPolyline
 90
    4
 70
    1
 43
0
 10
80
 20
155
 10
60
 20
155
 10
60
 20
135
 10
80
 20
135
  0
LWPOLYLINE
  5
86
100
AcDbEntity
  8
0
  6
ByLayer
 62
  256
370
   -1
100
AcDbPolyline
 90
    4
 70
    1
 43
0
 10
60
 20
155
 10
40
 20
155
 10
40
 20
135
 10
60
 20
135
  0
LWPOLYLINE
  5
87
100
AcDbEntity
  8
0
  6
ByLayer
 62
  256
370
   -1
100
AcDbPolyline
 90
    4
 70
    1
 43
0
 10
40
 20
155
 10
20
 20
155
 10
20
 20
135
 10
40
 20
135
  0
LWPOLYLINE
  5
88
100
AcDbEntity
  8
0
  6
ByLayer
 62
  256
370
   -1
100
AcDbPolyline
 90
    4
 70
    1
 43
0
 10
20
 20
135
 10
0
 20
135
 10
0
 20
155
 10
20
 20
155
  0
LWPOLYLINE
  5
89
100
AcDbEntity
  8
0
  6
ByLayer
 62
  256
370
   -1
100
AcDbPolyline
 90
    4
 70
    1
 43
0
 10
0
 20
155
 10
-20
 20
155
 10
-20
 20
135
 10
0
 20
135
  0
LWPOLYLINE
  5
8A
100
AcDbEntity
  8
0
  6
ByLayer
 62
  256
370
   -1
100
AcDbPolyline
 90
    4
 70
    1
 43
0
 10
-20
 20
135
 10
-40
 20
135
 10
-40
 20
155
 10
-20
 20
155
  0
LWPOLYLINE
  5
8B
100
AcDbEntity
  8
0
  6
ByLayer
 62
  256
370
   -1
100
AcDbPolyline
 90
    4
 70
    1
 43
0
 10
-40
 20
155
 10
-60
 20
155
 10
-60
 20
135
 10
-40
 20
135
  0
LWPOLYLINE
  5
8C
100
AcDbEntity
  8
0
  6
ByLayer
 62
  256
370
   -1
100
AcDbPolyline
 90
    4
 70
    1
 43
0
 10
-60
 20
135
 10
-80
 20
135
 10
-80
 20
155
 10
-60
 20
155
  0
LWPOLYLINE
  5
8D
100
AcDbEntity
  8
0
  6
ByLayer
 62
  256
370
   -1
100
AcDbPolyline
 90
    4
 70
    1
 43
0
 10
-80
 20
155
 10
-100
 20
155
 10
-100
 20
135
 10
-80
 20
135
  0
LWPOLYLINE
  5
8E
100
AcDbEntity
  8
0
  6
ByLayer
 62
  256
370
   -1
100
AcDbPolyline
 90
    4
 70
    1
 43
0
 10
100
 20
155
 10
80
 20
155
 10
80
 20
175
 10
100
 20
175
  0
LWPOLYLINE
  5
8F
100
AcDbEntity
  8
0
  6
ByLayer
 62
  256
370
   -1
100
AcDbPolyline
 90
    4
 70
    1
 43
0
 10
80
 20
175
 10
60
 20
175
 10
60
 20
155
 10
80
 20
155
  0
LWPOLYLINE
  5
90
100
AcDbEntity
  8
0
  6
ByLayer
 62
  256
370
   -1
100
AcDbPolyline
 90
    4
 70
    1
 43
0
 10
60
 20
175
 10
40
 20
175
 10
40
 20
155
 10
60
 20
155
  0
LWPOLYLINE
  5
91
100
AcDbEntity
  8
0
  6
ByLayer
 62
  256
370
   -1
100
AcDbPolyline
 90
    4
 70
    1
 43
0
 10
40
 20
175
 10
20
 20
175
 10
20
 20
155
 10
40
 20
155
  0
LWPOLYLINE
  5
92
100
AcDbEntity
  8
0
  6
ByLayer
 62
  256
370
   -1
100
AcDbPolyline
 90
    4
 70
    1
 43
0
 10
20
 20
155
 10
0
 20
155
 10
0
 20
175
 10
20
 20
175
  0
LWPOLYLINE
  5
93
100
AcDbEntity
  8
0
  6
ByLayer
 62
  256
370
   -1
100
AcDbPolyline
 90
    4
 70
    1
 43
0
 10
0
 20
175
 10
-20
 20
175
 10
-20
 20
155
 10
0
 20
155
  0
LWPOLYLINE
  5
94
100
AcDbEntity
  8
0
  6
ByLayer
 62
  256
370
   -1
100
AcDbPolyline
 90
    4
 70
    1
 43
0
 10
-20
 20
155
 10
-40
 20
155
 10
-40
 20
175
 10
-20
 20
175
  0
LWPOLYLINE
  5
95
100
AcDbEntity
  8
0
  6
ByLayer
 62
  256
370
   -1
100
AcDbPolyline
 90
    4
 70
    1
 43
0
 10
-40
 20
175
 10
-60
 20
175
 10
-60
 20
155
 10
-40
 20
155
  0
LWPOLYLINE
  5
96
100
AcDbEntity
  8
0
  6
ByLayer
 62
  256
370
   -1
100
AcDbPolyline
 90
    4
 70
    1
 43
0
 10
-60
 20
155
 10
-80
 20
155
 10
-80
 20
175
 10
-60
 20
175
  0
LWPOLYLINE
  5
97
100
AcDbEntity
  8
0
  6
ByLayer
 62
  256
370
   -1
100
AcDbPolyline
 90
    4
 70
    1
 43
0
 10
-80
 20
175
 10
-100
 20
175
 10
-100
 20
155
 10
-80
 20
155
  0
LWPOLYLINE
  5
98
100
AcDbEntity
  8
0
  6
ByLayer
 62
  256
370
   -1
100
AcDbPolyline
 90
    4
 70
    1
 43
0
 10
100
 20
175
 10
80
 20
175
 10
80
 20
195
 10
100
 20
195
  0
LWPOLYLINE
  5
99
100
AcDbEntity
  8
0
  6
ByLayer
 62
  256
370
   -1
100
AcDbPolyline
 90
    4
 70
    1
 43
0
 10
80
 20
195
 10
60
 20
195
 10
60
 20
175
 10
80
 20
175
  0
LWPOLYLINE
  5
9A
100
AcDbEntity
  8
0
  6
ByLayer
 62
  256
370
   -1
100
AcDbPolyline
 90
    4
 70
    1
 43
0
 10
60
 20
195
 10
40
 20
195
 10
40
 20
175
 10
60
 20
175
  0
LWPOLYLINE
  5
9B
100
AcDbEntity
  8
0
  6
ByLayer
 62
  256
370
   -1
100
AcDbPolyline
 90
    4
 70
    1
 43
0
 10
40
 20
195
 10
20
 20
195
 10
20
 20
175
 10
40
 20
175
  0
LWPOLYLINE
  5
9C
100
AcDbEntity
  8
0
  6
ByLayer
 62
  256
370
   -1
100
AcDbPolyline
 90
    4
 70
    1
 43
0
 10
20
 20
175
 10
0
 20
175
 10
0
 20
195
 10
20
 20
195
  0
LWPOLYLINE
  5
9D
100
AcDbEntity
  8
0
  6
ByLayer
 62
  256
370
   -1
100
AcDbPolyline
 90
    4
 70
    1
 43
0
 10
0
 20
195
 10
-20
 20
195
 10
-20
 20
175
 10
0
 20
175
  0
LWPOLYLINE
  5
9E
100
AcDbEntity
  8
0
  6
ByLayer
 62
  256
370
   -1
100
AcDbPolyline
 90
    4
 70
    1
 43
0
 10
-20
 20
175
 10
-40
 20
175
 10
-40
 20
195
 10
-20
 20
195
  0
LWPOLYLINE
  5
9F
100
AcDbEntity
  8
0
  6
ByLayer
 62
  256
370
   -1
100
AcDbPolyline
 90
    4
 70
    1
 43
0
 10
-40
 20
195
 10
-60
 20
195
 10
-60
 20
175
 10
-40
 20
175
  0
LWPOLYLINE
  5
A0
100
AcDbEntity
  8
0
  6
ByLayer
 62
  256
370
   -1
100
AcDbPolyline
 90
    4
 70
    1
 43
0
 10
-60
 20
175
 10
-80
 20
175
 10
-80
 20
195
 10
-60
 20
195
  0
LWPOLYLINE
  5
A1
100
AcDbEntity
  8
0
  6
ByLayer
 62
  256
370
   -1
100
AcDbPolyline
 90
    4
 70
    1
 43
0
 10
-80
 20
195
 10
-100
 20
195
 10
-100
 20
175
 10
-80
 20
175
  0
LWPOLYLINE
  5
A2
100
AcDbEntity
  8
0
  6
ByLayer
 62
  256
370
   -1
100
AcDbPolyline
 90
    4
 70
    1
 43
0
 10
100
 20
195
 10
80
 20
195
 10
80
 20
215
 10
100
 20
215
  0
LWPOLYLINE
  5
A3
100
AcDbEntity
  8
0
  6
ByLayer
 62
  256
370
   -1
100
AcDbPolyline
 90
    4
 70
    1
 43
0
 10
80
 20
215
 10
60
 20
215
 10
60
 20
195
 10
80
 20
195
  0
LWPOLYLINE
  5
A4
100
AcDbEntity
  8
0
  6
ByLayer
 62
  256
370
   -1
100
AcDbPolyline
 90
    4
 70
    1
 43
0
 10
60
 20
215
 10
40
 20
215
 10
40
 20
195
 10
60
 20
195
  0
LWPOLYLINE
  5
A5
100
AcDbEntity
  8
0
  6
ByLayer
 62
  256
370
   -1
100
AcDbPolyline
 90
    4
 70
    1
 43
0
 10
40
 20
215
 10
20
 20
215
 10
20
 20
195
 10
40
 20
195
  0
LWPOLYLINE
  5
A6
100
AcDbEntity
  8
0
  6
ByLayer
 62
  256
370
   -1
100
AcDbPolyline
 90
    4
 70
    1
 43
0
 10
20
 20
195
 10
0
 20
195
 10
0
 20
215
 10
20
 20
215
  0
LWPOLYLINE
  5
A7
100
AcDbEntity
  8
0
  6
ByLayer
 62
  256
370
   -1
100
AcDbPolyline
 90
    4
 70
    1
 43
0
 10
0
 20
215
 10
-20
 20
215
 10
-20
 20
195
 10
0
 20
195
  0
LWPOLYLINE
  5
A8
100
AcDbEntity
  8
0
  6
ByLayer
 62
  256
370
   -1
100
AcDbPolyline
 90
    4
 70
    1
 43
0
 10
-20
 20
195
 10
-40
 20
195
 10
-40
 20
215
 10
-20
 20
215
  0
LWPOLYLINE
  5
A9
100
AcDbEntity
  8
0
  6
ByLayer
 62
  256
370
   -1
100
AcDbPolyline
 90
    4
 70
    1
 43
0
 10
-40
 20
215
 10
-60
 20
215
 10
-60
 20
195
 10
-40
 20
195
  0
LWPOLYLINE
  5
AA
100
AcDbEntity
  8
0
  6
ByLayer
 62
  256
370
   -1
100
AcDbPolyline
 90
    4
 70
    1
 43
0
 10
-60
 20
195
 10
-80
 20
195
 10
-80
 20
215
 10
-60
 20
215
  0
LWPOLYLINE
  5
AB
100
AcDbEntity
  8
0
  6
ByLayer
 62
  256
370
   -1
100
AcDbPolyline
 90
    4
 70
    1
 43
0
 10
-80
 20
215
 10
-100
 20
215
 10
-100
 20
195
 10
-80
 20
195
  0
MTEXT
  5
AC
100
AcDbEntity
  8
0
  6
ByLayer
 62
  256
370
   -1
100
AcDbMText
 10
50
 20
30
 30
0
 40
5
 41
112.8751855555556
 71
    1
 72
    1
  1
Cubes are 20mm\PFrom (75,100) to (215,-100)
  7
amiri-regular
210
0
220
0
230
1
 50
0
 73
    2
 44
1
  0
ENDSEC
  0
SECTION
  2
OBJECTS
  0
DICTIONARY
  5
C
330
0
100
AcDbDictionary
281
    1
  3
ACAD_GROUP
350
D
  0
DICTIONARY
  5
D
330
C
100
AcDbDictionary
281
    1
  0
PLOTSETTINGS
  5
AD
100
AcDbPlotSettings
  6
1x1
 40
2.96
 41
3.05
 42
2.96
 43
2.96
  0
ENDSEC
  0
EOF
