999
dxfrw 0.6.3
  0
SECTION
  2
HEADER
  9
$ACADVER
  1
AC1021
  9
$DWGCODEPAGE
  3
ANSI_1252
  9
$INSBASE
 10
0
 20
0
 30
0
  9
$EXTMIN
 10
-200
 20
-75
 30
0
  9
$EXTMAX
 10
200
 20
200
 30
0
  9
$LIMMIN
 10
0
 20
0
  9
$LIMMAX
 10
420
 20
297
  9
$ORTHOMODE
 70
    0
  9
$REGENMODE
 70
    1
  9
$FILLMODE
 70
    1
  9
$QTEXTMODE
 70
    0
  9
$MIRRTEXT
 70
    0
  9
$LTSCALE
 40
1
  9
$ATTMODE
 70
    0
  9
$TEXTSIZE
 40
2.5
  9
$TRACEWID
 40
15.68
  9
$TEXTSTYLE
  7
STANDARD
  9
$CLAYER
  8
marks
  9
$CELTYPE
  6
BYLAYER
  9
$CECOLOR
 62
  256
  9
$CELTSCALE
 40
1
  9
$DISPSILH
 70
    0
  9
$DIMSCALE
 40
2.5
  9
$DIMASZ
 40
2.5
  9
$DIMEXO
 40
0.625
  9
$DIMDLI
 40
3.75
  9
$DIMRND
 40
0
  9
$DIMDLE
 40
0
  9
$DIMEXE
 40
1.25
  9
$DIMTP
 40
0
  9
$DIMTM
 40
0
  9
$DIMTXT
 40
2.5
  9
$DIMCEN
 40
2.5
  9
$DIMTSZ
 40
0
  9
$DIMTOL
 70
    0
  9
$DIMLIM
 70
    0
  9
$DIMTIH
 70
    0
  9
$DIMTOH
 70
    0
  9
$DIMSE1
 70
    0
  9
$DIMSE2
 70
    0
  9
$DIMTAD
 70
    1
  9
$DIMZIN
 70
    8
  9
$DIMBLK
  1

  9
$DIMASO
 70
    1
  9
$DIMSHO
 70
    1
  9
$DIMPOST
  1

  9
$DIMAPOST
  1

  9
$DIMALT
 70
    0
  9
$DIMALTD
 70
    3
  9
$DIMALTF
 40
0.03937
  9
$DIMLFAC
 40
1
  9
$DIMTOFL
 70
    1
  9
$DIMTVP
 40
0
  9
$DIMTIX
 70
    0
  9
$DIMSOXD
 70
    0
  9
$DIMSAH
 70
    0
  9
$DIMBLK1
  1

  9
$DIMBLK2
  1

  9
$DIMSTYLE
  2
Standard
  9
$DIMCLRD
 70
    0
  9
$DIMCLRE
 70
    0
  9
$DIMCLRT
 70
    0
  9
$DIMTFAC
 40
1
  9
$DIMGAP
 40
0.625
  9
$DIMJUST
 70
    0
  9
$DIMSD1
 70
    0
  9
$DIMSD2
 70
    0
  9
$DIMTOLJ
 70
    0
  9
$DIMTZIN
 70
    8
  9
$DIMALTZ
 70
    0
  9
$DIMALTTZ
 70
    0
  9
$DIMUPT
 70
    0
  9
$DIMDEC
 70
    2
  9
$DIMTDEC
 70
    2
  9
$DIMALTU
 70
    2
  9
$DIMALTTD
 70
    3
  9
$DIMTXSTY
  7
STANDARD
  9
$DIMAUNIT
 70
    0
  9
$DIMADEC
 70
    0
  9
$DIMALTRND
 40
0
  9
$DIMAZIN
 70
    0
  9
$DIMDSEP
 70
   44
  9
$DIMATFIT
 70
    3
  9
$DIMFRAC
 70
    0
  9
$DIMLDRBLK
  1
STANDARD
  9
$DIMLUNIT
 70
    2
  9
$DIMLWD
 70
   -2
  9
$DIMLWE
 70
   -2
  9
$DIMTMOVE
 70
    0
  9
$DIMFXL
 40
1
  9
$DIMFXLON
 70
    0
  9
$DIMJOGANG
 40
0.7854
  9
$DIMTFILL
 70
    0
  9
$DIMTFILLCLR
 70
    0
  9
$DIMARCSYM
 70
    0
  9
$DIMLTYPE
  6

  9
$DIMLTEX1
  6

  9
$DIMLTEX2
  6

  9
$LUNITS
 70
    2
  9
$LUPREC
 70
    4
  9
$SKETCHINC
 40
1
  9
$FILLETRAD
 40
0
  9
$AUNITS
 70
    0
  9
$AUPREC
 70
    2
  9
$MENU
  1
.
  9
$ELEVATION
 40
0
  9
$PELEVATION
 40
0
  9
$THICKNESS
 40
0
  9
$LIMCHECK
 70
    0
  9
$CHAMFERA
 40
0
  9
$CHAMFERB
 40
0
  9
$CHAMFERC
 40
0
  9
$CHAMFERD
 40
0
  9
$SKPOLY
 70
    0
  9
$USRTIMER
 70
    1
  9
$ANGBASE
 50
0
  9
$ANGDIR
 70
    0
  9
$PDMODE
 70
   34
  9
$PDSIZE
 40
0
  9
$PLINEWID
 40
0
  9
$SPLFRAME
 70
    0
  9
$SPLINETYPE
 70
    2
  9
$SPLINESEGS
 70
    8
  9
$HANDSEED
  5
20000
  9
$SURFTAB1
 70
    6
  9
$SURFTAB2
 70
    6
  9
$SURFTYPE
 70
    6
  9
$SURFU
 70
    6
  9
$SURFV
 70
    6
  9
$UCSBASE
  2

  9
$UCSNAME
  2

  9
$UCSORG
 10
0
 20
0
 30
0
  9
$UCSXDIR
 10
1
 20
0
 30
0
  9
$UCSYDIR
 10
0
 20
1
 30
0
  9
$UCSORTHOREF
  2

  9
$UCSORTHOVIEW
 70
    0
  9
$UCSORGTOP
 10
0
 20
0
 30
0
  9
$UCSORGBOTTOM
 10
0
 20
0
 30
0
  9
$UCSORGLEFT
 10
0
 20
0
 30
0
  9
$UCSORGRIGHT
 10
0
 20
0
 30
0
  9
$UCSORGFRONT
 10
0
 20
0
 30
0
  9
$UCSORGBACK
 10
0
 20
0
 30
0
  9
$PUCSBASE
  2

  9
$PUCSNAME
  2

  9
$PUCSORG
 10
0
 20
0
 30
0
  9
$PUCSXDIR
 10
1
 20
0
 30
0
  9
$PUCSYDIR
 10
0
 20
1
 30
0
  9
$PUCSORTHOREF
  2

  9
$PUCSORTHOVIEW
 70
    0
  9
$PUCSORGTOP
 10
0
 20
0
 30
0
  9
$PUCSORGBOTTOM
 10
0
 20
0
 30
0
  9
$PUCSORGLEFT
 10
0
 20
0
 30
0
  9
$PUCSORGRIGHT
 10
0
 20
0
 30
0
  9
$PUCSORGFRONT
 10
0
 20
0
 30
0
  9
$PUCSORGBACK
 10
0
 20
0
 30
0
  9
$USERI1
 70
    0
  9
$USERI2
 70
    0
  9
$USERI3
 70
    0
  9
$USERI4
 70
    0
  9
$USERI5
 70
    0
  9
$USERR1
 40
0
  9
$USERR2
 40
0
  9
$USERR3
 40
0
  9
$USERR4
 40
0
  9
$USERR5
 40
0
  9
$WORLDVIEW
 70
    1
  9
$SHADEDGE
 70
    3
  9
$SHADEDIF
 70
   70
  9
$TILEMODE
 70
    1
  9
$MAXACTVP
 70
   64
  9
$PINSBASE
 10
148.5
 20
58.59375000000001
 30
0
  9
$PLIMCHECK
 70
    0
  9
$PEXTMIN
 10
0
 20
0
 30
0
  9
$PEXTMAX
 10
0
 20
0
 30
0
  9
$GRIDMODE
 70
    1
  9
$SNAPSTYLE
 70
    0
  9
$PLIMMIN
 10
0
 20
0
  9
$PLIMMAX
 10
297
 20
210
  9
$UNITMODE
 70
    0
  9
$VISRETAIN
 70
    1
  9
$PLINEGEN
 70
    0
  9
$PSLTSCALE
 70
    1
  9
$TREEDEPTH
 70
 3020
  9
$CMLSTYLE
  2
Standard
  9
$CMLJUST
 70
    0
  9
$CMLSCALE
 40
20
  9
$PROXYGRAPHICS
 70
    1
  9
$MEASUREMENT
 70
    1
  9
$CELWEIGHT
370
   -1
  9
$ENDCAPS
280
    0
  9
$JOINSTYLE
280
    0
  9
$LWDISPLAY
290
    0
  9
$INSUNITS
 70
    4
  9
$HYPERLINKBASE
  1

  9
$STYLESHEET
  1

  9
$XEDIT
290
    1
  9
$CEPSNTYPE
380
    0
  9
$PSTYLEMODE
290
    1
  9
$EXTNAMES
290
    1
  9
$PSVPSCALE
 40
0.7425
  9
$OLESTARTUP
290
    0
  9
$SORTENTS
280
  127
  9
$INDEXCTL
280
    0
  9
$HIDETEXT
280
    1
  9
$XCLIPFRAME
290
    0
  9
$HALOGAP
280
    0
  9
$OBSCOLOR
 70
  257
  9
$OBSLTYPE
280
    0
  9
$INTERSECTIONDISPLAY
280
    0
  9
$INTERSECTIONCOLOR
 70
  257
  9
$DIMASSOC
280
    1
  9
$PROJECTNAME
  1

  9
$CAMERADISPLAY
290
    0
  9
$LENSLENGTH
 40
50
  9
$CAMERAHEIGHT
 40
0
  9
$STEPSPERSEC
 40
2
  9
$STEPSIZE
 40
50
  9
$3DDWFPREC
 40
2
  9
$PSOLWIDTH
 40
5
  9
$PSOLHEIGHT
 40
80
  9
$LOFTANG1
 40
1.570796326794897
  9
$LOFTANG2
 40
1.570796326794897
  9
$LOFTMAG1
 40
0
  9
$LOFTMAG2
 40
0
  9
$LOFTPARAM
 70
    7
  9
$LOFTNORMALS
280
    1
  9
$LATITUDE
 40
1
  9
$LONGITUDE
 40
1
  9
$NORTHDIRECTION
 40
0
  9
$TIMEZONE
 70
-8000
  9
$LIGHTGLYPHDISPLAY
280
    1
  9
$TILEMODELIGHTSYNCH
280
    1
  9
$SOLIDHIST
280
    1
  9
$SHOWHIST
280
    1
  9
$DWFFRAME
280
    2
  9
$DGNFRAME
280
    0
  9
$REALWORLDSCALE
290
    1
  9
$INTERFERECOLOR
 62
    1
  9
$CSHADOW
280
    0
  9
$SHADOWPLANELOCATION
 40
0
  0
ENDSEC
  0
SECTION
  2
CLASSES
  0
ENDSEC
  0
SECTION
  2
TABLES
  0
TABLE
  2
VPORT
  5
8
330
0
100
AcDbSymbolTable
 70
    1
  0
VPORT
  5
31
330
2
100
AcDbSymbolTableRecord
100
AcDbViewportTableRecord
  2
*ACTIVE
 70
    0
 10
0
 20
0
 11
1
 21
1
 12
119.9654009207813
 22
103.9070401676058
 13
0
 23
0
 14
10
 24
10
 15
10
 25
10
 16
0
 26
0
 36
1
 17
0
 27
0
 37
0
 40
290.184024904441
 41
1.670572916666667
 42
50
 43
0
 44
0
 50
0
 51
0
 71
    0
 72
  100
 73
    1
 74
    3
 75
    0
 76
    1
 77
    0
 78
    0
281
    0
 65
    1
110
0
120
0
130
0
111
1
121
0
131
0
112
0
122
1
132
0
 79
    0
146
0
348
10020
 60
    7
 61
    5
292
1
282
    1
141
0
142
0
 63
  250
421
3358443
  0
ENDTAB
  0
TABLE
  2
LTYPE
  5
5
330
0
100
AcDbSymbolTable
 70
    4
  0
LTYPE
  5
14
330
5
100
AcDbSymbolTableRecord
100
AcDbLinetypeTableRecord
  2
ByBlock
 70
    0
  3

 72
   65
 73
    0
 40
0
  0
LTYPE
  5
15
330
5
100
AcDbSymbolTableRecord
100
AcDbLinetypeTableRecord
  2
ByLayer
 70
    0
  3

 72
   65
 73
    0
 40
0
  0
LTYPE
  5
16
330
5
100
AcDbSymbolTableRecord
100
AcDbLinetypeTableRecord
  2
Continuous
 70
    0
  3
Solid line
 72
   65
 73
    0
 40
0
  0
LTYPE
  5
32
330
5
100
AcDbSymbolTableRecord
100
AcDbLinetypeTableRecord
  2
DOT
 70
    0
  3
Dot . . . . . . . . . . . . . . . . . . . . . .
 72
   65
 73
    2
 40
6.35
 49
0
 74
    0
 49
-6.35
 74
    0
  0
LTYPE
  5
33
330
5
100
AcDbSymbolTableRecord
100
AcDbLinetypeTableRecord
  2
DOTTINY
 70
    0
  3
Dot (.15x) .....................................
 72
   65
 73
    2
 40
0.9525
 49
0
 74
    0
 49
-0.9525
 74
    0
  0
LTYPE
  5
34
330
5
100
AcDbSymbolTableRecord
100
AcDbLinetypeTableRecord
  2
DOT2
 70
    0
  3
Dot (.5x) .....................................
 72
   65
 73
    2
 40
3.175
 49
0
 74
    0
 49
-3.175
 74
    0
  0
LTYPE
  5
35
330
5
100
AcDbSymbolTableRecord
100
AcDbLinetypeTableRecord
  2
DOTX2
 70
    0
  3
Dot (2x) .  .  .  .  .  .  .  .  .  .  .  .  .
 72
   65
 73
    2
 40
12.7
 49
0
 74
    0
 49
-12.7
 74
    0
  0
LTYPE
  5
36
330
5
100
AcDbSymbolTableRecord
100
AcDbLinetypeTableRecord
  2
DASHED
 70
    0
  3
Dashed _ _ _ _ _ _ _ _ _ _ _ _ _ _ _ _ _
 72
   65
 73
    2
 40
19.05
 49
12.7
 74
    0
 49
-6.35
 74
    0
  0
LTYPE
  5
37
330
5
100
AcDbSymbolTableRecord
100
AcDbLinetypeTableRecord
  2
DASHEDTINY
 70
    0
  3
Dashed (.15x) _ _ _ _ _ _ _ _ _ _ _ _ _ _ _ _ _
 72
   65
 73
    2
 40
2.8575
 49
1.905
 74
    0
 49
-0.9525
 74
    0
  0
LTYPE
  5
38
330
5
100
AcDbSymbolTableRecord
100
AcDbLinetypeTableRecord
  2
DASHED2
 70
    0
  3
Dashed (.5x) _ _ _ _ _ _ _ _ _ _ _ _ _ _ _ _ _
 72
   65
 73
    2
 40
9.524999999999999
 49
6.35
 74
    0
 49
-3.175
 74
    0
  0
LTYPE
  5
39
330
5
100
AcDbSymbolTableRecord
100
AcDbLinetypeTableRecord
  2
DASHEDX2
 70
    0
  3
Dashed (2x) ____  ____  ____  ____  ____  ___
 72
   65
 73
    2
 40
38.09999999999999
 49
25.4
 74
    0
 49
-12.7
 74
    0
  0
LTYPE
  5
3A
330
5
100
AcDbSymbolTableRecord
100
AcDbLinetypeTableRecord
  2
DASHDOT
 70
    0
  3
Dash dot __ . __ . __ . __ . __ . __ . __ . __
 72
   65
 73
    4
 40
25.4
 49
12.7
 74
    0
 49
-6.35
 74
    0
 49
0
 74
    0
 49
-6.35
 74
    0
  0
LTYPE
  5
3B
330
5
100
AcDbSymbolTableRecord
100
AcDbLinetypeTableRecord
  2
DASHDOTTINY
 70
    0
  3
Dash dot (.15x) _._._._._._._._._._._._._._._.
 72
   65
 73
    4
 40
3.81
 49
1.905
 74
    0
 49
-0.9525
 74
    0
 49
0
 74
    0
 49
-0.9525
 74
    0
  0
LTYPE
  5
3C
330
5
100
AcDbSymbolTableRecord
100
AcDbLinetypeTableRecord
  2
DASHDOT2
 70
    0
  3
Dash dot (.5x) _._._._._._._._._._._._._._._.
 72
   65
 73
    4
 40
12.7
 49
6.35
 74
    0
 49
-3.175
 74
    0
 49
0
 74
    0
 49
-3.175
 74
    0
  0
LTYPE
  5
3D
330
5
100
AcDbSymbolTableRecord
100
AcDbLinetypeTableRecord
  2
DASHDOTX2
 70
    0
  3
Dash dot (2x) ____  .  ____  .  ____  .  ___
 72
   65
 73
    4
 40
50.8
 49
25.4
 74
    0
 49
-12.7
 74
    0
 49
0
 74
    0
 49
-12.7
 74
    0
  0
LTYPE
  5
3E
330
5
100
AcDbSymbolTableRecord
100
AcDbLinetypeTableRecord
  2
DIVIDE
 70
    0
  3
Divide ____ . . ____ . . ____ . . ____ . . ____
 72
   65
 73
    6
 40
31.75
 49
12.7
 74
    0
 49
-6.35
 74
    0
 49
0
 74
    0
 49
-6.35
 74
    0
 49
0
 74
    0
 49
-6.35
 74
    0
  0
LTYPE
  5
3F
330
5
100
AcDbSymbolTableRecord
100
AcDbLinetypeTableRecord
  2
DIVIDETINY
 70
    0
  3
Divide (.15x) __..__..__..__..__..__..__..__.._
 72
   65
 73
    6
 40
4.7625
 49
1.905
 74
    0
 49
-0.9525
 74
    0
 49
0
 74
    0
 49
-0.9525
 74
    0
 49
0
 74
    0
 49
-0.9525
 74
    0
  0
LTYPE
  5
40
330
5
100
AcDbSymbolTableRecord
100
AcDbLinetypeTableRecord
  2
DIVIDE2
 70
    0
  3
Divide (.5x) __..__..__..__..__..__..__..__.._
 72
   65
 73
    6
 40
15.875
 49
6.35
 74
    0
 49
-3.175
 74
    0
 49
0
 74
    0
 49
-3.175
 74
    0
 49
0
 74
    0
 49
-3.175
 74
    0
  0
LTYPE
  5
41
330
5
100
AcDbSymbolTableRecord
100
AcDbLinetypeTableRecord
  2
DIVIDEX2
 70
    0
  3
Divide (2x) ________  .  .  ________  .  .  _
 72
   65
 73
    6
 40
63.5
 49
25.4
 74
    0
 49
-12.7
 74
    0
 49
0
 74
    0
 49
-12.7
 74
    0
 49
0
 74
    0
 49
-12.7
 74
    0
  0
LTYPE
  5
42
330
5
100
AcDbSymbolTableRecord
100
AcDbLinetypeTableRecord
  2
BORDER
 70
    0
  3
Border __ __ . __ __ . __ __ . __ __ . __ __ .
 72
   65
 73
    6
 40
44.45
 49
12.7
 74
    0
 49
-6.35
 74
    0
 49
12.7
 74
    0
 49
-6.35
 74
    0
 49
0
 74
    0
 49
-6.35
 74
    0
  0
LTYPE
  5
43
330
5
100
AcDbSymbolTableRecord
100
AcDbLinetypeTableRecord
  2
BORDERTINY
 70
    0
  3
Border (.15x) __.__.__.__.__.__.__.__.__.__.__.
 72
   65
 73
    6
 40
6.6675
 49
1.905
 74
    0
 49
-0.9525
 74
    0
 49
1.905
 74
    0
 49
-0.9525
 74
    0
 49
0
 74
    0
 49
-0.9525
 74
    0
  0
LTYPE
  5
44
330
5
100
AcDbSymbolTableRecord
100
AcDbLinetypeTableRecord
  2
BORDER2
 70
    0
  3
Border (.5x) __.__.__.__.__.__.__.__.__.__.__.
 72
   65
 73
    6
 40
22.225
 49
6.35
 74
    0
 49
-3.175
 74
    0
 49
6.35
 74
    0
 49
-3.175
 74
    0
 49
0
 74
    0
 49
-3.175
 74
    0
  0
LTYPE
  5
45
330
5
100
AcDbSymbolTableRecord
100
AcDbLinetypeTableRecord
  2
BORDERX2
 70
    0
  3
Border (2x) ____  ____  .  ____  ____  .  ___
 72
   65
 73
    6
 40
88.89999999999999
 49
25.4
 74
    0
 49
-12.7
 74
    0
 49
25.4
 74
    0
 49
-12.7
 74
    0
 49
0
 74
    0
 49
-12.7
 74
    0
  0
LTYPE
  5
46
330
5
100
AcDbSymbolTableRecord
100
AcDbLinetypeTableRecord
  2
CENTER
 70
    0
  3
Center ____ _ ____ _ ____ _ ____ _ ____ _ ____
 72
   65
 73
    4
 40
50.8
 49
31.75
 74
    0
 49
-6.35
 74
    0
 49
6.35
 74
    0
 49
-6.35
 74
    0
  0
LTYPE
  5
47
330
5
100
AcDbSymbolTableRecord
100
AcDbLinetypeTableRecord
  2
CENTERTINY
 70
    0
  3
Center (.15x) ___ _ ___ _ ___ _ ___ _ ___ _ ___
 72
   65
 73
    4
 40
7.62
 49
4.7625
 74
    0
 49
-0.9525
 74
    0
 49
0.9525
 74
    0
 49
-0.9525
 74
    0
  0
LTYPE
  5
48
330
5
100
AcDbSymbolTableRecord
100
AcDbLinetypeTableRecord
  2
CENTER2
 70
    0
  3
Center (.5x) ___ _ ___ _ ___ _ ___ _ ___ _ ___
 72
   65
 73
    4
 40
28.575
 49
19.05
 74
    0
 49
-3.175
 74
    0
 49
3.175
 74
    0
 49
-3.175
 74
    0
  0
LTYPE
  5
49
330
5
100
AcDbSymbolTableRecord
100
AcDbLinetypeTableRecord
  2
CENTERX2
 70
    0
  3
Center (2x) ________  __  ________  __  _____
 72
   65
 73
    4
 40
101.6
 49
63.5
 74
    0
 49
-12.7
 74
    0
 49
12.7
 74
    0
 49
-12.7
 74
    0
  0
ENDTAB
  0
TABLE
  2
LAYER
  5
2
330
0
100
AcDbSymbolTable
 70
    1
  0
LAYER
  5
10
330
2
100
AcDbSymbolTableRecord
100
AcDbLayerTableRecord
  2
0
 70
    0
 62
    7
  6
CONTINUOUS
370
   -3
390
F
  0
LAYER
  5
4A
330
2
100
AcDbSymbolTableRecord
100
AcDbLayerTableRecord
  2
marks
 70
    0
 62
    7
  6
CONTINUOUS
370
    0
390
F
  0
ENDTAB
  0
TABLE
  2
STYLE
  5
3
330
0
100
AcDbSymbolTable
 70
    3
  0
STYLE
  5
4B
330
2
100
AcDbSymbolTableRecord
100
AcDbTextStyleTableRecord
  2
amiri-regular
 70
    0
 40
0
 41
1
 50
0
 71
    0
 42
1
  3
amiri-regular
  4

  0
STYLE
  5
4C
330
2
100
AcDbSymbolTableRecord
100
AcDbTextStyleTableRecord
  2
Standard
 70
    0
 40
0
 41
1
 50
0
 71
    0
 42
1
  3
txt
  4

  0
ENDTAB
  0
TABLE
  2
VIEW
  5
6
330
0
100
AcDbSymbolTable
 70
    0
  0
ENDTAB
  0
TABLE
  2
UCS
  5
7
330
0
100
AcDbSymbolTable
 70
    0
  0
ENDTAB
  0
TABLE
  2
APPID
  5
9
330
0
100
AcDbSymbolTable
 70
    1
  0
APPID
  5
12
330
9
100
AcDbSymbolTableRecord
100
AcDbRegAppTableRecord
  2
ACAD
 70
    0
  0
APPID
  5
4D
330
9
100
AcDbSymbolTableRecord
100
AcDbRegAppTableRecord
  2
LibreCad
 70
    0
  0
ENDTAB
  0
TABLE
  2
DIMSTYLE
  5
A
330
0
100
AcDbSymbolTable
 70
    1
100
AcDbDimStyleTable
 71
    1
  0
DIMSTYLE
105
4E
330
A
100
AcDbSymbolTableRecord
100
AcDbDimStyleTableRecord
  2
Standard
 70
    0
 40
2.5
 41
2.5
 42
0.625
 43
0.38
 44
1.25
 45
0
 46
0
 47
0
 48
0
 49
1
140
2.5
141
0.09
142
0
143
25.4
144
1
145
0
146
1
147
0.625
148
0
 71
    0
 72
    0
 73
    0
 74
    1
 75
    0
 76
    0
 77
    0
 78
    8
 79
    0
170
    0
171
    2
172
    0
173
    0
174
    0
175
    0
176
    0
177
    0
178
    0
179
    0
271
    2
272
    4
273
    2
274
    2
275
    0
276
    0
277
    2
278
   44
279
    0
280
    0
281
    0
282
    0
283
    1
284
    0
285
    0
286
    0
288
    0
289
    3
340
STANDARD
341

371
   -2
372
   -2
  0
ENDTAB
  0
TABLE
  2
BLOCK_RECORD
  5
1
330
0
100
AcDbSymbolTable
 70
    2
  0
BLOCK_RECORD
  5
1F
330
1
100
AcDbSymbolTableRecord
100
AcDbBlockTableRecord
  2
*Model_Space
 70
    0
280
    1
281
    0
  0
BLOCK_RECORD
  5
1E
330
1
100
AcDbSymbolTableRecord
100
AcDbBlockTableRecord
  2
*Paper_Space
 70
    0
280
    1
281
    0
  0
ENDTAB
  0
ENDSEC
  0
SECTION
  2
BLOCKS
  0
BLOCK
  5
20
330
1F
100
AcDbEntity
  8
0
100
AcDbBlockBegin
  2
*Model_Space
 70
    0
 10
0
 20
0
 30
0
  3
*Model_Space
  1

  0
ENDBLK
  5
21
330
1F
100
AcDbEntity
  8
0
100
AcDbBlockEnd
  0
BLOCK
  5
1C
330
1B
100
AcDbEntity
  8
0
100
AcDbBlockBegin
  2
*Paper_Space
 70
    0
 10
0
 20
0
 30
0
  3
*Paper_Space
  1

  0
ENDBLK
  5
1D
330
1F
100
AcDbEntity
  8
0
100
AcDbBlockEnd
  0
ENDSEC
  0
SECTION
  2
ENTITIES
  0
SPLINE
  5
4F
100
AcDbEntity
  8
0
  6
ByLayer
 62
  256
370
   -1
100
AcDbSpline
210
0
220
0
230
0
 70
    8
 71
    3
 72
   29
 73
   25
 74
    0
 42
1e-07
 43
1e-07
 40
0
 40
0
 40
0
 40
0
 40
0.0004929
 40
0.0004929
 40
0.0004929
 40
0.0009856999999999999
 40
0.0009856999999999999
 40
0.0009856999999999999
 40
0.0014786
 40
0.0014786
 40
0.0014786
 40
0.0019714
 40
0.0019714
 40
0.0019714
 40
0.0024643
 40
0.0024643
 40
0.0024643
 40
0.0029571
 40
0.0029571
 40
0.0029571
 40
0.00345
 40
0.00345
 40
0.00345
 40
0.0039428
 40
0.0039428
 40
0.0039428
 40
0.0039428
 10
26.40508840520971
 20
-49.80513761655483
 30
0
 10
26.57173846372629
 20
-49.80513245642135
 30
0
 10
26.73578815168401
 20
-49.78987004278913
 30
0
 10
26.8973397297448
 20
-49.75991937160589
 30
0
 10
27.0588913078056
 20
-49.72996870042265
 30
0
 10
27.21912304255769
 20
-49.68485209839501
 30
0
 10
27.37396675674432
 20
-49.62533636308692
 30
0
 10
27.52881047093094
 20
-49.56582062777884
 30
0
 10
27.67623582387472
 20
-49.49291993161134
 30
0
 10
27.81643454005919
 20
-49.40698020421686
 30
0
 10
27.95663325624366
 20
-49.32104047682236
 30
0
 10
28.09085353157095
 20
-49.22081742809595
 30
0
 10
28.21359587841995
 20
-49.11013267942202
 30
0
 10
28.33633822526895
 20
-48.99944793074809
 30
0
 10
28.44777231827202
 20
-48.87869800202269
 30
0
 10
28.54801045575673
 20
-48.74798284744485
 30
0
 10
28.64824859324143
 20
-48.61726769286703
 30
0
 10
28.73776192352873
 20
-48.47520401879991
 30
0
 10
28.81243497519126
 20
-48.32827459279269
 30
0
 10
28.88710802685378
 20
-48.18134516678546
 30
0
 10
28.94799505882114
 20
-48.02874606956375
 30
0
 10
28.99481018529968
 20
-47.87036180778127
 30
0
 10
29.04162531177822
 20
-47.71197754599879
 30
0
 10
29.07413096355504
 20
-47.54755260569031
 30
0
 10
29.09120857613742
 20
-47.38177916263229
 30
0
  0
SPLINE
  5
50
100
AcDbEntity
  8
0
  6
ByLayer
 62
  256
370
   -1
100
AcDbSpline
210
0
220
0
230
0
 70
    8
 71
    3
 72
   89
 73
   85
 74
    0
 42
1e-07
 43
1e-07
 40
0
 40
0
 40
0
 40
0
 40
0.0080144
 40
0.0080144
 40
0.0080144
 40
0.008068799999999999
 40
0.008068799999999999
 40
0.008068799999999999
 40
0.0090162
 40
0.0090162
 40
0.0090162
 40
0.009077399999999999
 40
0.009077399999999999
 40
0.009077399999999999
 40
0.010018
 40
0.010018
 40
0.010018
 40
0.010086
 40
0.010086
 40
0.010086
 40
0.0120217
 40
0.0120217
 40
0.0120217
 40
0.0121032
 40
0.0121032
 40
0.0121032
 40
0.0130235
 40
0.0130235
 40
0.0130235
 40
0.0131118
 40
0.0131118
 40
0.0131118
 40
0.0140253
 40
0.0140253
 40
0.0140253
 40
0.0141204
 40
0.0141204
 40
0.0141204
 40
0.0160289
 40
0.0160289
 40
0.0160289
 40
0.0161376
 40
0.0161376
 40
0.0161376
 40
0.0180325
 40
0.0180325
 40
0.0180325
 40
0.0181548
 40
0.0181548
 40
0.0181548
 40
0.0200361
 40
0.0200361
 40
0.0200361
 40
0.020172
 40
0.020172
 40
0.020172
 40
0.0240433
 40
0.0240433
 40
0.0240433
 40
0.0242064
 40
0.0242064
 40
0.0242064
 40
0.0280505
 40
0.0280505
 40
0.0280505
 40
0.0282407
 40
0.0282407
 40
0.0282407
 40
0.0300541
 40
0.0300541
 40
0.0300541
 40
0.030253
 40
0.030253
 40
0.030253
 40
0.0307553
 40
0.0307553
 40
0.0307553
 40
0.0310559
 40
0.0310559
 40
0.0310559
 40
0.0312573
 40
0.0312573
 40
0.0312573
 40
0.0320578
 40
0.0320578
 40
0.0320578
 40
0.0320578
 10
29.09120857613741
 20
-47.38177916263229
 30
0
 10
29.36515655297219
 20
-44.7225491842192
 30
0
 10
29.63910452981992
 20
-42.06331920580745
 30
0
 10
29.9130525066432
 20
-39.40408922739317
 30
0
 10
29.91491049503043
 20
-39.38605361904091
 30
0
 10
29.9167684838527
 20
-39.36801800646563
 30
0
 10
29.91862647953604
 20
-39.34998239100522
 30
0
 10
29.95101211542581
 20
-39.0356141281578
 30
0
 10
29.98559649252788
 20
-38.72155329163758
 30
0
 10
30.02524279537752
 20
-38.4082065550678
 30
0
 10
30.02780166571937
 20
-38.38798238248948
 30
0
 10
30.03038102213901
 20
-38.36776108955667
 30
0
 10
30.03298167153366
 20
-38.34754278694886
 30
0
 10
30.07298632014587
 20
-38.03653350864194
 30
0
 10
30.11731089372208
 20
-37.72612944982117
 30
0
 10
30.16678112862551
 20
-37.41644911614558
 30
0
 10
30.17035445030429
 20
-37.39408036346076
 30
0
 10
30.173954252078
 20
-37.37171533145643
 30
0
 10
30.17758078225936
 20
-37.34935405505492
 30
0
 10
30.28089575852081
 20
-36.71231131031949
 30
0
 10
30.40588816928577
 20
-36.07831456043132
 30
0
 10
30.55865163817529
 20
-35.448220160524
 30
0
 10
30.56508634563859
 20
-35.42167930512748
 30
0
 10
30.57157033427237
 20
-35.39514537405899
 30
0
 10
30.57810405955436
 20
-35.36861843138136
 30
0
 10
30.65184982258012
 20
-35.06921042996233
 30
0
 10
30.7319370719601
 20
-34.77069346159586
 30
0
 10
30.81902370434084
 20
-34.47316003199017
 30
0
 10
30.82738198193383
 20
-34.44460378943199
 30
0
 10
30.83580516402791
 20
-34.416055130022
 30
0
 10
30.84429374671367
 20
-34.3875145125867
 30
0
 10
30.93208545889367
 20
-34.0923380662851
 30
0
 10
31.02714234436603
 20
-33.79745181887013
 30
0
 10
31.12827831079786
 20
-33.50759856649103
 30
0
 10
31.13881178337799
 20
-33.47740988689551
 30
0
 10
31.14941253991329
 20
-33.44727115061082
 30
0
 10
31.1600793888876
 20
-33.41718736427176
 30
0
 10
31.37405099013051
 20
-32.81372180945587
 30
0
 10
31.61586195239982
 20
-32.22834641008139
 30
0
 10
31.88501636062828
 20
-31.66169646136612
 30
0
 10
31.90034822362784
 20
-31.6294183372975
 30
0
 10
31.91576897145173
 20
-31.59719997642852
 30
0
 10
31.93127856838719
 20
-31.56504135590421
 30
0
 10
32.20161689137657
 20
-31.00450405900538
 30
0
 10
32.49905955781194
 20
-30.46218737071615
 30
0
 10
32.82186513167738
 20
-29.93695103074555
 30
0
 10
32.84269986066747
 20
-29.90305088252943
 30
0
 10
32.86363932748328
 20
-29.8692212092304
 30
0
 10
32.88468312536043
 20
-29.83546171987118
 30
0
 10
33.20838967453932
 20
-29.31615584807391
 30
0
 10
33.55601546104936
 20
-28.81292948582054
 30
0
 10
33.919421326393
 20
-28.32032179082822
 30
0
 10
33.94567073741583
 20
-28.28473991642277
 30
0
 10
33.97200189973929
 20
-28.24921303054445
 30
0
 10
33.99841164197572
 20
-28.21373900144854
 30
0
 10
34.75079080043245
 20
-27.20313011631387
 30
0
 10
35.56360017848461
 20
-26.23317200186395
 30
0
 10
36.37897529339101
 20
-25.26494995224505
 30
0
 10
36.41332104211235
 20
-25.22416588781295
 30
0
 10
36.44767139097218
 20
-25.18338549812238
 30
0
 10
36.48202206282028
 20
-25.14260583436647
 30
0
 10
37.29178848806833
 20
-24.18128540696817
 30
0
 10
38.10382625702289
 20
-23.22148410373028
 30
0
 10
38.86904125997317
 20
-22.23008693655807
 30
0
 10
38.90689669765469
 20
-22.18104219287843
 30
0
 10
38.94464538307796
 20
-22.13190943237353
 30
0
 10
38.98228058420688
 20
-22.08268541911195
 30
0
 10
39.34116290276179
 20
-21.613294331035
 30
0
 10
39.68942602777171
 20
-21.13591909978713
 30
0
 10
40.02053274922056
 20
-20.64753317663886
 30
0
 10
40.05684317941498
 20
-20.59397490729051
 30
0
 10
40.09294817980485
 20
-20.540282230638
 30
0
 10
40.12883997380598
 20
-20.48645002373974
 30
0
 10
40.2194978235834
 20
-20.35047710118215
 30
0
 10
40.30879009055559
 20
-20.21361070845639
 30
0
 10
40.39657843023801
 20
-20.07576018057112
 30
0
 10
40.44911715885867
 20
-19.9932607108126
 30
0
 10
40.50111598923721
 20
-19.91040798698686
 30
0
 10
40.55254593672057
 20
-19.82718296385411
 30
0
 10
40.58700079468379
 20
-19.77142738774834
 30
0
 10
40.62119862418146
 20
-19.71550671841695
 30
0
 10
40.65512969517226
 20
-19.65941693922995
 30
0
 10
40.78998101683904
 20
-19.43650087337935
 30
0
 10
40.92486406932414
 20
-19.21352598933721
 30
0
 10
41.05972910108859
 20
-18.9905849461635
 30
0
  0
SPLINE
  5
51
100
AcDbEntity
  8
0
  6
ByLayer
 62
  256
370
   -1
100
AcDbSpline
210
0
220
0
230
0
 70
    8
 71
    3
 72
  131
 73
  127
 74
    0
 42
1e-07
 43
1e-07
 40
0
 40
0
 40
0
 40
0
 40
0.0049327
 40
0.0049327
 40
0.0049327
 40
0.005432999999999999
 40
0.005432999999999999
 40
0.005432999999999999
 40
0.0076658
 40
0.0076658
 40
0.0076658
 40
0.0081496
 40
0.0081496
 40
0.0081496
 40
0.0103991
 40
0.0103991
 40
0.0103991
 40
0.0108661
 40
0.0108661
 40
0.0108661
 40
0.0158654
 40
0.0158654
 40
0.0158654
 40
0.0162991
 40
0.0162991
 40
0.0162991
 40
0.0213318
 40
0.0213318
 40
0.0213318
 40
0.0217321
 40
0.0217321
 40
0.0217321
 40
0.0240651
 40
0.0240651
 40
0.0240651
 40
0.0244487
 40
0.0244487
 40
0.0244487
 40
0.0267982
 40
0.0267982
 40
0.0267982
 40
0.0271652
 40
0.0271652
 40
0.0271652
 40
0.0322646
 40
0.0322646
 40
0.0322646
 40
0.0325982
 40
0.0325982
 40
0.0325982
 40
0.037731
 40
0.037731
 40
0.037731
 40
0.0380312
 40
0.0380312
 40
0.0380312
 40
0.0404642
 40
0.0404642
 40
0.0404642
 40
0.0431974
 40
0.0431974
 40
0.0431974
 40
0.0434643
 40
0.0434643
 40
0.0434643
 40
0.0461808
 40
0.0461808
 40
0.0461808
 40
0.0486638
 40
0.0486638
 40
0.0486638
 40
0.0488973
 40
0.0488973
 40
0.0488973
 40
0.0541302
 40
0.0541302
 40
0.0541302
 40
0.0543303
 40
0.0543303
 40
0.0543303
 40
0.0595966
 40
0.0595966
 40
0.0595966
 40
0.05976339999999999
 40
0.05976339999999999
 40
0.05976339999999999
 40
0.0623298
 40
0.0623298
 40
0.0623298
 40
0.0624799
 40
0.0624799
 40
0.0624799
 40
0.065063
 40
0.065063
 40
0.065063
 40
0.0651964
 40
0.0651964
 40
0.0651964
 40
0.07052939999999999
 40
0.07052939999999999
 40
0.07052939999999999
 40
0.07062939999999999
 40
0.07062939999999999
 40
0.07062939999999999
 40
0.0732626
 40
0.0732626
 40
0.0732626
 40
0.07334599999999999
 40
0.07334599999999999
 40
0.07334599999999999
 40
0.0759958
 40
0.0759958
 40
0.0759958
 40
0.07606249999999999
 40
0.07606249999999999
 40
0.07606249999999999
 40
0.07872889999999999
 40
0.07872889999999999
 40
0.07872889999999999
 40
0.0814621
 40
0.0814621
 40
0.0814621
 40
0.0814955
 40
0.0814955
 40
0.0814955
 40
0.08692849999999999
 40
0.08692849999999999
 40
0.08692849999999999
 40
0.08692849999999999
 10
41.0597289915342
 20
-18.99058487975822
 30
0
 10
41.80130369646732
 20
-17.52280684103281
 30
0
 10
42.46219981351463
 20
-16.01631796378553
 30
0
 10
43.04041669750391
 20
-14.48268288941814
 30
0
 10
43.09907079270686
 20
-14.32711154560349
 30
0
 10
43.15688410036728
 20
-14.17123593631566
 30
0
 10
43.21385706194384
 20
-14.01505613894408
 30
0
 10
43.46808812256213
 20
-13.3181333454964
 30
0
 10
43.70565888644673
 20
-12.61492289653555
 30
0
 10
43.92643863945636
 20
-11.90596172738791
 30
0
 10
43.97426911943009
 20
-11.75236995757738
 30
0
 10
44.02132559498347
 20
-11.59844446163378
 30
0
 10
44.06759314833561
 20
-11.44424359655994
 30
0
 10
44.28276032033045
 20
-10.72713275638724
 30
0
 10
44.48114933538179
 20
-10.00293096051204
 30
0
 10
44.66111427651639
 20
-9.27780819140157
 30
0
 10
44.69847261274527
 20
-9.127282316501358
 30
0
 10
44.73505315662627
 20
-8.976688401438373
 30
0
 10
44.77085600222316
 20
-8.826034376845485
 30
0
 10
45.15415668164672
 20
-7.213151684935078
 30
0
 10
45.44881126695291
 20
-5.591488144026605
 30
0
 10
45.65629699308411
 20
-3.96120114153467
 30
0
 10
45.67429483400146
 20
-3.819785890145701
 30
0
 10
45.69163799902699
 20
-3.678305914098816
 30
0
 10
45.70832431030983
 20
-3.536761028850637
 30
0
 10
45.90197380210435
 20
-1.89409149992804
 30
0
 10
46.00729116497238
 20
-0.2426829007349934
 30
0
 10
46.02098357494481
 20
1.417793098771707
 30
0
 10
46.02207265999222
 20
1.549866239023467
 30
0
 10
46.02258113251117
 20
1.681996826727154
 30
0
 10
46.02250822749159
 20
1.814184933038202
 30
0
 10
46.02208334072022
 20
2.584570539298098
 30
0
 10
46.00192180434177
 20
3.356806965430665
 30
0
 10
45.96187785472573
 20
4.131182515497621
 30
0
 10
45.95529370665146
 20
4.258507700341209
 30
0
 10
45.94816662416535
 20
4.38589732675707
 30
0
 10
45.94050060336567
 20
4.513317784579906
 30
0
 10
45.8935443474786
 20
5.293799311974063
 30
0
 10
45.82634544096108
 20
6.074977649699997
 30
0
 10
45.73988547224636
 20
6.849160202765225
 30
0
 10
45.72638234114063
 20
6.970070361179758
 30
0
 10
45.71240923813943
 20
7.090866487135052
 30
0
 10
45.69796723106806
 20
7.211550031765245
 30
0
 10
45.4972689122238
 20
8.888670420902264
 30
0
 10
45.20606597353602
 20
10.543499229766
 30
0
 10
44.82717580142435
 20
12.17672005984996
 30
0
 10
44.80239047956705
 20
12.28355815415069
 30
0
 10
44.77722996190302
 20
12.3903037749685
 30
0
 10
44.75169381697386
 20
12.4969568057647
 30
0
 10
44.35877229099255
 20
14.13801389277708
 30
0
 10
43.87700715140866
 20
15.75717853706091
 30
0
 10
43.30488506732883
 20
17.35408152344717
 30
0
 10
43.27142084416214
 20
17.44748661896611
 30
0
 10
43.23764633327077
 20
17.54081526241598
 30
0
 10
43.20356047416902
 20
17.63406719135586
 30
0
 10
42.92733936574808
 20
18.38975156760362
 30
0
 10
42.6306670071441
 20
19.14042121945603
 30
0
 10
42.31299501318043
 20
19.88590742872886
 30
0
 10
41.95611259219663
 20
20.72340940633709
 30
0
 10
41.57414838358257
 20
21.5508019328207
 30
0
 10
41.16885410503657
 20
22.36400634556778
 30
0
 10
41.12928085455359
 20
22.44340826072673
 30
0
 10
41.08947732098598
 20
22.52268937737476
 30
0
 10
41.0494436998075
 20
22.60184915731612
 30
0
 10
40.64194138404098
 20
23.4076167269764
 30
0
 10
40.21083568091105
 20
24.20065727076325
 30
0
 10
39.75578464312496
 20
24.98078771715223
 30
0
 10
39.33984673057052
 20
25.69386339976112
 30
0
 10
38.90365574225479
 20
26.39661169882081
 30
0
 10
38.44811595731304
 20
27.08765430879411
 30
0
 10
38.40527883158194
 20
27.1526371712081
 30
0
 10
38.36229703185386
 20
27.21748026039859
 30
0
 10
38.31917162078896
 20
27.28218316604741
 30
0
 10
37.35267686332347
 20
28.73225674350894
 30
0
 10
36.31220837463817
 20
30.11400949972862
 30
0
 10
35.20147941141141
 20
31.43085450253871
 30
0
 10
35.15899564402091
 20
31.48122190866646
 30
0
 10
35.11640905238061
 20
31.53149431858103
 30
0
 10
35.07371963397214
 20
31.5816717276913
 30
0
 10
33.95049905694681
 20
32.90191221153195
 30
0
 10
32.7561305697337
 20
34.15643154449737
 30
0
 10
31.49058265609872
 20
35.3451996364057
 30
0
 10
31.45050037565454
 20
35.38285015562319
 30
0
 10
31.41034642861668
 20
35.42043447218633
 30
0
 10
31.37012071822454
 20
35.45795249640847
 30
0
 10
30.75117592666221
 20
36.03523467379296
 30
0
 10
30.11511166387374
 20
36.59693530416582
 30
0
 10
29.46196622168413
 20
37.14241095206054
 30
0
 10
29.42375925964286
 20
37.17431956846867
 30
0
 10
29.38548839920126
 20
37.20617652257131
 30
0
 10
29.34715490930648
 20
37.23798072321673
 30
0
 10
28.68758379858657
 20
37.78520801723131
 30
0
 10
28.00885565366237
 20
38.31727791961637
 30
0
 10
27.31745864599581
 20
38.8285707384585
 30
0
 10
27.28174384090858
 20
38.85498208123978
 30
0
 10
27.24599431714401
 20
38.88133916319654
 30
0
 10
27.21021013237564
 20
38.90764192676137
 30
0
 10
25.780000329703
 20
39.95890159723592
 30
0
 10
24.29362418092416
 20
40.92389525085237
 30
0
 10
22.75048168679309
 20
41.80141897659315
 30
0
 10
22.72152363084901
 20
41.81788627059802
 30
0
 10
22.69254478626802
 20
41.83432273826089
 30
0
 10
22.66354544548028
 20
41.85072824131807
 30
0
 10
21.90054030276979
 20
42.28237540505879
 30
0
 10
21.12326525170374
 20
42.69260530591067
 30
0
 10
20.33711275329221
 20
43.07889141075876
 30
0
 10
20.31221384727691
 20
43.09112580731549
 30
0
 10
20.28730490068048
 20
43.1033370151275
 30
0
 10
20.26238592008837
 20
43.11552504307036
 30
0
 10
19.47061581390618
 20
43.5027847121727
 30
0
 10
18.6686849879109
 20
43.86664491973163
 30
0
 10
17.85671641056474
 20
44.20738869275055
 30
0
 10
17.83627265004088
 20
44.2159679460492
 30
0
 10
17.81582252624731
 20
44.22453254494922
 30
0
 10
17.79536603903772
 20
44.23308248909414
 30
0
 10
16.97777792171589
 20
44.57479965025816
 30
0
 10
16.150026190975
 20
44.89311081209987
 30
0
 10
15.31210183335132
 20
45.18799500680046
 30
0
 10
14.45321206393744
 20
45.49025739562569
 30
0
 10
13.58500971188199
 20
45.76733614665387
 30
0
 10
12.71151409232975
 20
46.01819563695646
 30
0
 10
12.70085317290231
 20
46.02125734986475
 30
0
 10
12.69019129657716
 20
46.02431523306278
 30
0
 10
12.67952846328929
 20
46.02736928624065
 30
0
 10
10.94288653587717
 20
46.52477899471651
 30
0
 10
9.180877794484017
 20
46.92060209890614
 30
0
 10
7.393173342904181
 20
47.21352076886436
 30
0
  0
SPLINE
  5
52
100
AcDbEntity
  8
0
  6
ByLayer
 62
  256
370
   -1
100
AcDbSpline
210
0
220
0
230
0
 70
    8
 71
    3
 72
   17
 73
   13
 74
    0
 42
1e-07
 43
1e-07
 40
0
 40
0
 40
0
 40
0
 40
0.0003018
 40
0.0003018
 40
0.0003018
 40
0.0006035999999999999
 40
0.0006035999999999999
 40
0.0006035999999999999
 40
0.0009054
 40
0.0009054
 40
0.0009054
 40
0.0012073
 40
0.0012073
 40
0.0012073
 40
0.0012073
 10
7.393173342904178
 20
47.21352076886436
 30
0
 10
7.29246242156222
 20
47.23002243898308
 30
0
 10
7.189725275575659
 20
47.22417566604784
 30
0
 10
7.092540465717542
 20
47.19715820995869
 30
0
 10
6.995355655859426
 20
47.17014075386953
 30
0
 10
6.903659647464043
 20
47.12145604096754
 30
0
 10
6.826952074707706
 20
47.05631926312901
 30
0
 10
6.75024450195137
 20
46.99118248529047
 30
0
 10
6.687449416754153
 20
46.90887125748003
 30
0
 10
6.644862075391419
 20
46.81693812472601
 30
0
 10
6.602274734028686
 20
46.72500499197199
 30
0
 10
6.580003617710738
 20
46.62467485268184
 30
0
 10
6.580003617710757
 20
46.52262142061598
 30
0
  0
LINE
  5
53
100
AcDbEntity
  8
0
  6
ByLayer
 62
  256
370
   -1
100
AcDbLine
 10
6.580003617710757
 20
46.52262142061598
 11
6.58000361771076
 21
25.39472533991258
  0
ARC
  5
54
100
AcDbEntity
  8
0
  6
ByLayer
 62
  256
370
   -1
100
AcDbCircle
 10
5.280003617710763
 20
25.39472533991258
 40
1.299999999999994
100
AcDbArc
 50
-90.0000000000002
 51
0
  0
LINE
  5
55
100
AcDbEntity
  8
0
  6
ByLayer
 62
  256
370
   -1
100
AcDbLine
 10
5.280003617710759
 20
24.09472533991259
 11
-5.279911234135381
 21
24.09472533991259
  0
ARC
  5
56
100
AcDbEntity
  8
0
  6
ByLayer
 62
  256
370
   -1
100
AcDbCircle
 10
-5.279911234135385
 20
25.39472533991258
 40
1.299999999999996
100
AcDbArc
 50
180
 51
270.0000000000002
  0
LINE
  5
57
100
AcDbEntity
  8
0
  6
ByLayer
 62
  256
370
   -1
100
AcDbLine
 10
-6.57991123413538
 20
25.39472533991258
 11
-6.579911234135314
 21
46.51995392223181
  0
SPLINE
  5
58
100
AcDbEntity
  8
0
  6
ByLayer
 62
  256
370
   -1
100
AcDbSpline
210
0
220
0
230
0
 70
    8
 71
    3
 72
   17
 73
   13
 74
    0
 42
1e-07
 43
1e-07
 40
0
 40
0
 40
0
 40
0
 40
0.0003018
 40
0.0003018
 40
0.0003018
 40
0.0006035999999999999
 40
0.0006035999999999999
 40
0.0006035999999999999
 40
0.0009054
 40
0.0009054
 40
0.0009054
 40
0.0012072
 40
0.0012072
 40
0.0012072
 40
0.0012072
 10
-6.579911234135314
 20
46.51995392223182
 30
0
 10
-6.579911234135315
 20
46.62200557370639
 30
0
 10
-6.602280775720622
 20
46.72244295273455
 30
0
 10
-6.644638722575031
 20
46.81398773373159
 30
0
 10
-6.68699666942944
 20
46.90553251472863
 30
0
 10
-6.749843185310506
 20
46.98816462854691
 30
0
 10
-6.826504795176205
 20
47.05335020092168
 30
0
 10
-6.903166405041903
 20
47.11853577329646
 30
0
 10
-6.994536775763837
 20
47.16722217744433
 30
0
 10
-7.092133614011045
 20
47.19440321496347
 30
0
 10
-7.18973045225825
 20
47.22158425248259
 30
0
 10
-7.29234428296621
 20
47.22735514036061
 30
0
 10
-7.39305409573742
 20
47.21085767394818
 30
0
  0
SPLINE
  5
59
100
AcDbEntity
  8
0
  6
ByLayer
 62
  256
370
   -1
100
AcDbSpline
210
0
220
0
230
0
 70
    8
 71
    3
 72
  131
 73
  127
 74
    0
 42
1e-07
 43
1e-07
 40
0
 40
0
 40
0
 40
0
 40
0.0054009
 40
0.0054009
 40
0.0054009
 40
0.0054343
 40
0.0054343
 40
0.0054343
 40
0.0108018
 40
0.0108018
 40
0.0108018
 40
0.0108686
 40
0.0108686
 40
0.0108686
 40
0.0162027
 40
0.0162027
 40
0.0162027
 40
0.0163029
 40
0.0163029
 40
0.0163029
 40
0.0216035
 40
0.0216035
 40
0.0216035
 40
0.0217372
 40
0.0217372
 40
0.0217372
 40
0.024304
 40
0.024304
 40
0.024304
 40
0.0244544
 40
0.0244544
 40
0.0244544
 40
0.0270044
 40
0.0270044
 40
0.0270044
 40
0.0271715
 40
0.0271715
 40
0.0271715
 40
0.0324053
 40
0.0324053
 40
0.0324053
 40
0.0326058
 40
0.0326058
 40
0.0326058
 40
0.0351058
 40
0.0351058
 40
0.0351058
 40
0.035323
 40
0.035323
 40
0.035323
 40
0.0378062
 40
0.0378062
 40
0.0378062
 40
0.0380401
 40
0.0380401
 40
0.0380401
 40
0.0405067
 40
0.0405067
 40
0.0405067
 40
0.0407573
 40
0.0407573
 40
0.0407573
 40
0.0432071
 40
0.0432071
 40
0.0432071
 40
0.0434745
 40
0.0434745
 40
0.0434745
 40
0.048608
 40
0.048608
 40
0.048608
 40
0.0489087
 40
0.0489087
 40
0.0489087
 40
0.0513084
 40
0.0513084
 40
0.0513084
 40
0.0540089
 40
0.0540089
 40
0.0540089
 40
0.054343
 40
0.054343
 40
0.054343
 40
0.0594098
 40
0.0594098
 40
0.0594098
 40
0.05977739999999999
 40
0.05977739999999999
 40
0.05977739999999999
 40
0.0621102
 40
0.0621102
 40
0.0621102
 40
0.06249449999999999
 40
0.06249449999999999
 40
0.06249449999999999
 40
0.0648106
 40
0.0648106
 40
0.0648106
 40
0.06521159999999999
 40
0.06521159999999999
 40
0.06521159999999999
 40
0.0702115
 40
0.0702115
 40
0.0702115
 40
0.0706459
 40
0.0706459
 40
0.0706459
 40
0.0756124
 40
0.0756124
 40
0.0756124
 40
0.0760802
 40
0.0760802
 40
0.0760802
 40
0.07831289999999999
 40
0.07831289999999999
 40
0.07831289999999999
 40
0.07879739999999999
 40
0.07879739999999999
 40
0.07879739999999999
 40
0.0810133
 40
0.0810133
 40
0.0810133
 40
0.08151459999999999
 40
0.08151459999999999
 40
0.08151459999999999
 40
0.0864142
 40
0.0864142
 40
0.0864142
 40
0.0864142
 10
-7.393054095737421
 20
47.21085767394818
 30
0
 10
-9.175708043952884
 20
46.91883773243045
 30
0
 10
-10.93279043945755
 20
46.52440845023318
 30
0
 10
-12.66464747238413
 20
46.02895689948643
 30
0
 10
-12.67536283310757
 20
46.0258914373921
 30
0
 10
-12.68607723126857
 20
46.02282210680225
 30
0
 10
-12.69679066686838
 20
46.01974890805835
 30
0
 10
-14.41762311845
 20
45.52612012955878
 30
0
 10
-16.11509051027589
 20
44.93154838744937
 30
0
 10
-17.77108645442307
 20
44.24057685842656
 30
0
 10
-17.79170653783814
 20
44.23197303870331
 30
0
 10
-17.81232026115637
 20
44.22335424891137
 30
0
 10
-17.83292758889545
 20
44.21472049774464
 30
0
 10
-19.47759520222588
 20
43.52566216348362
 30
0
 10
-21.0781459353647
 20
42.7431467633233
 30
0
 10
-22.6267964454036
 20
41.86898114099149
 30
0
 10
-22.65590266099532
 20
41.8525515767344
 30
0
 10
-22.68499075522104
 20
41.83608955952862
 30
0
 10
-22.71406067402694
 20
41.81959510133172
 30
0
 10
-24.25109008335255
 20
40.94747476591581
 30
0
 10
-25.74270845066911
 20
39.98120365414935
 30
0
 10
-27.16806309361264
 20
38.93603542741835
 30
0
 10
-27.20400777643157
 20
38.90967830949807
 30
0
 10
-27.23991102475678
 20
38.88327063201995
 30
0
 10
-27.2757724841473
 20
38.85681265007609
 30
0
 10
-27.96438596650257
 20
38.34876519768309
 30
0
 10
-28.63855608135822
 20
37.82175677611087
 30
0
 10
-29.29815383975264
 20
37.27603411080965
 30
0
 10
-29.3367966249623
 20
37.24406274118187
 30
0
 10
-29.37538925868627
 20
37.21202727876378
 30
0
 10
-29.4139318204465
 20
37.17992769623166
 30
0
 10
-30.06753758675277
 20
36.63558213950559
 30
0
 10
-30.70758085248561
 20
36.07200693133503
 30
0
 10
-31.33148189736324
 20
35.49142369388815
 30
0
 10
-31.37235726201112
 20
35.45338632925488
 30
0
 10
-31.41316208720601
 20
35.41527712203651
 30
0
 10
-31.45389559119376
 20
35.37709676097803
 30
0
 10
-32.72996002716711
 20
34.18101500690162
 30
0
 10
-33.93369310854644
 20
32.91825433605519
 30
0
 10
-35.06570437356745
 20
31.58833408362099
 30
0
 10
-35.10906943922047
 20
31.53738752430471
 30
0
 10
-35.15232932233943
 20
31.48634219085212
 30
0
 10
-35.19548393964163
 20
31.43519817643642
 30
0
 10
-35.73356805589782
 20
30.79749626829627
 30
0
 10
-36.25584310829675
 20
30.14348927084278
 30
0
 10
-36.75887051566939
 20
29.4772322634598
 30
0
 10
-36.8025770908452
 20
29.41934314737428
 30
0
 10
-36.84613989598106
 20
29.36135970697075
 30
0
 10
-36.88955667833749
 20
29.30328456839797
 30
0
 10
-37.38590758220357
 20
28.63935587635214
 30
0
 10
-37.86367766161325
 20
27.96294067342314
 30
0
 10
-38.32265269444531
 20
27.27413030094881
 30
0
 10
-38.36588715365946
 20
27.20924584792908
 30
0
 10
-38.40895519071611
 20
27.14425093118103
 30
0
 10
-38.45185672365771
 20
27.079145495457
 30
0
 10
-38.90423418075409
 20
26.3926378245986
 30
0
 10
-39.33795762652638
 20
25.69374823622617
 30
0
 10
-39.75291671695412
 20
24.98240319581814
 30
0
 10
-39.79507948083967
 20
24.9101255335817
 30
0
 10
-39.8370498792827
 20
24.83771733447204
 30
0
 10
-39.87882743228059
 20
24.76517903480298
 30
0
 10
-40.28721118299742
 20
24.0561029696976
 30
0
 10
-40.67710039703472
 20
23.33459744363239
 30
0
 10
-41.04623944138577
 20
22.60510235451099
 30
0
 10
-41.08652473111263
 20
22.52549029106416
 30
0
 10
-41.12656647169062
 20
22.44577672221775
 30
0
 10
-41.16636199490851
 20
22.3659668787839
 30
0
 10
-41.93047643892348
 20
20.83353686628006
 30
0
 10
-42.60692527690531
 20
19.26111916133197
 30
0
 10
-43.19644524099564
 20
17.6503175449334
 30
0
 10
-43.23097906454309
 20
17.55595748559853
 30
0
 10
-43.2652182848184
 20
17.46145471691629
 30
0
 10
-43.29916222647444
 20
17.36681162254637
 30
0
 10
-43.57003244062952
 20
16.61156653345067
 30
0
 10
-43.82111031646616
 20
15.84988413193909
 30
0
 10
-44.05202531421648
 20
15.08343392861601
 30
0
 10
-44.31187728916672
 20
14.22093646862051
 30
0
 10
-44.54639770300409
 20
13.35178785883571
 30
0
 10
-44.7557098841412
 20
12.47602230149132
 30
0
 10
-44.78161153784821
 20
12.36764936269907
 30
0
 10
-44.807126599489
 20
12.25917643955861
 30
0
 10
-44.83225474390388
 20
12.15060531700227
 30
0
 10
-45.21324944978309
 20
10.50444226483408
 30
0
 10
-45.5055542540413
 20
8.831342609074156
 30
0
 10
-45.70435257358596
 20
7.153667361252221
 30
0
 10
-45.71877611107265
 20
7.031945950915963
 30
0
 10
-45.73271041698361
 20
6.91018479352083
 30
0
 10
-45.74615334719121
 20
6.788393509405215
 30
0
 10
-45.83146183808481
 20
6.0155091388517
 30
0
 10
-45.89722770139141
 20
5.24048735218955
 30
0
 10
-45.94308538518719
 20
4.463770320913075
 30
0
 10
-45.95063976899355
 20
4.335817531379802
 30
0
 10
-45.95765378467813
 20
4.207818603675847
 30
0
 10
-45.9641261932812
 20
4.079771592033503
 30
0
 10
-46.00313479367021
 20
3.308044246854016
 30
0
 10
-46.02234748509733
 20
2.532899646690247
 30
0
 10
-46.02174430551935
 20
1.759602219080756
 30
0
 10
-46.02163988817033
 20
1.625735506188493
 30
0
 10
-46.02094199290061
 20
1.491937440129884
 30
0
 10
-46.0196506965164
 20
1.358236949181332
 30
0
 10
-46.00354798674928
 20
-0.3090334217361146
 30
0
 10
-45.89569406739552
 20
-1.96121624090845
 30
0
 10
-45.70029123159189
 20
-3.59986237901829
 30
0
 10
-45.68331389692975
 20
-3.742234129996819
 30
0
 10
-45.66567531741923
 20
-3.884501323343868
 30
0
 10
-45.64737831003723
 20
-4.026664390046915
 30
0
 10
-45.43819591967858
 20
-5.651958051070547
 30
0
 10
-45.14306605728775
 20
-7.263657115903489
 30
0
 10
-44.76200221297874
 20
-8.861758439450098
 30
0
 10
-44.72610690688033
 20
-9.012295776019025
 30
0
 10
-44.68944788375004
 20
-9.162712396051454
 30
0
 10
-44.65202536881194
 20
-9.313008294091413
 30
0
 10
-44.4734348250842
 20
-10.03026169609843
 30
0
 10
-44.27739922591453
 20
-10.74475626427391
 30
0
 10
-44.0636484461968
 20
-11.45644821397379
 30
0
 10
-44.01726299863697
 20
-11.61089045579928
 30
0
 10
-43.97003805608755
 20
-11.76521805903507
 30
0
 10
-43.92197240765235
 20
-11.91942191125035
 30
0
 10
-43.70213213712575
 20
-12.62471181559764
 30
0
 10
-43.46457614225066
 20
-13.3274693899765
 30
0
 10
-43.21073618573705
 20
-14.02300225884909
 30
0
 10
-43.15330673264359
 20
-14.18036153678346
 30
0
 10
-43.09503535911092
 20
-14.33738058056427
 30
0
 10
-43.03593320060568
 20
-14.49402034929673
 30
0
 10
-42.45833704318709
 20
-16.02483632636077
 30
0
 10
-41.79881587994507
 20
-17.52720467512798
 30
0
 10
-41.06018181721134
 20
-18.98956889138087
 30
0
  0
SPLINE
  5
5A
100
AcDbEntity
  8
0
  6
ByLayer
 62
  256
370
   -1
100
AcDbSpline
210
0
220
0
230
0
 70
    8
 71
    3
 72
   80
 73
   76
 74
    0
 42
1e-07
 43
1e-07
 40
0
 40
0
 40
0
 40
0
 40
0.0002963
 40
0.0002963
 40
0.0002963
 40
0.000794
 40
0.000794
 40
0.000794
 40
0.0009923
 40
0.0009923
 40
0.0009923
 40
0.00179
 40
0.00179
 40
0.00179
 40
0.0019845
 40
0.0019845
 40
0.0019845
 40
0.0037847
 40
0.0037847
 40
0.0037847
 40
0.0039691
 40
0.0039691
 40
0.0039691
 40
0.00778
 40
0.00778
 40
0.00778
 40
0.0079381
 40
0.0079381
 40
0.0079381
 40
0.0117758
 40
0.0117758
 40
0.0117758
 40
0.0119072
 40
0.0119072
 40
0.0119072
 40
0.0137735
 40
0.0137735
 40
0.0137735
 40
0.0138917
 40
0.0138917
 40
0.0138917
 40
0.0157712
 40
0.0157712
 40
0.0157712
 40
0.0158763
 40
0.0158763
 40
0.0158763
 40
0.0197666
 40
0.0197666
 40
0.0197666
 40
0.0198453
 40
0.0198453
 40
0.0198453
 40
0.0217643
 40
0.0217643
 40
0.0217643
 40
0.0218298
 40
0.0218298
 40
0.0218298
 40
0.0227631
 40
0.0227631
 40
0.0227631
 40
0.0228221
 40
0.0228221
 40
0.0228221
 40
0.0233182
 40
0.0233182
 40
0.0233182
 40
0.0237619
 40
0.0237619
 40
0.0237619
 40
0.0238144
 40
0.0238144
 40
0.0238144
 40
0.0317525
 40
0.0317525
 40
0.0317525
 40
0.0317525
 10
-41.06018181721089
 20
-18.98956889138064
 30
0
 10
-41.00876539516604
 20
-19.07456350938126
 30
0
 10
-40.95734649491796
 20
-19.15956252938589
 30
0
 10
-40.90592773290144
 20
-19.24456139827285
 30
0
 10
-40.8195648407854
 20
-19.38732539833399
 30
0
 10
-40.73329926880585
 20
-19.53015909326887
 30
0
 10
-40.64684797925323
 20
-19.67282718643515
 30
0
 10
-40.61241394863305
 20
-19.72965268335987
 30
0
 10
-40.5777183945746
 20
-19.78628400307632
 30
0
 10
-40.54277179362406
 20
-19.84272679227432
 30
0
 10
-40.40213992537269
 20
-20.06986347161733
 30
0
 10
-40.2574656178238
 20
-20.29392434596257
 30
0
 10
-40.10936390007416
 20
-20.51537695022775
 30
0
 10
-40.07325204310018
 20
-20.56937406041155
 30
0
 10
-40.03693716186741
 20
-20.62321663300742
 30
0
 10
-40.00042683916045
 20
-20.67691046793328
 30
0
 10
-39.66253796625515
 20
-21.17382608028426
 30
0
 10
-39.3079605638541
 20
-21.65804410216064
 30
0
 10
-38.94271342856474
 20
-22.13414300937749
 30
0
 10
-38.90530805998563
 20
-22.18290083218821
 30
0
 10
-38.86779105548219
 20
-22.23157368553917
 30
0
 10
-38.83016793015727
 20
-22.280165794094
 30
0
 10
-38.05244196065273
 20
-23.28463696467587
 30
0
 10
-37.22949502868573
 20
-24.25476200603741
 30
0
 10
-36.41027640931733
 20
-25.22759966098587
 30
0
 10
-36.3762877652585
 20
-25.26796182073095
 30
0
 10
-36.34230119984105
 20
-25.30832684960998
 30
0
 10
-36.30832094726787
 20
-25.34869762181378
 30
0
 10
-35.48357034892584
 20
-26.32855551012442
 30
0
 10
-34.66201045358971
 20
-27.31205067054716
 30
0
 10
-33.90564971822374
 20
-28.33880697806067
 30
0
 10
-33.8797459147206
 20
-28.3739712751901
 30
0
 10
-33.85392331391177
 20
-28.40918962676026
 30
0
 10
-33.8281848844464
 20
-28.44446398130014
 30
0
 10
-33.46271049799067
 20
-28.94534431280695
 30
0
 10
-33.11427271803978
 20
-29.4576607765959
 30
0
 10
-32.79115806911542
 20
-29.98677188442418
 30
0
 10
-32.7706816573123
 20
-30.02030269761867
 30
0
 10
-32.75030891385565
 20
-30.05390460099144
 30
0
 10
-32.73004022925308
 20
-30.08757741730948
 30
0
 10
-32.40794595116321
 20
-30.62267980189323
 30
0
 10
-32.11224221838442
 20
-31.17601342104588
 30
0
 10
-31.84467094580507
 20
-31.74691472782336
 30
0
 10
-31.82970865936275
 20
-31.77883889068269
 30
0
 10
-31.81484848113834
 20
-31.81079036511534
 30
0
 10
-31.80008976324782
 20
-31.84276894741945
 30
0
 10
-31.25377129890751
 20
-33.02650930384902
 30
0
 10
-30.84665012979321
 20
-34.24766634201773
 30
0
 10
-30.54657085639888
 20
-35.49762964141954
 30
0
 10
-30.5404955058155
 20
-35.52293617183844
 30
0
 10
-30.53446344122832
 20
-35.54825435224074
 30
0
 10
-30.52847431679038
 20
-35.57358409005393
 30
0
 10
-30.38255746847029
 20
-36.19070860445906
 30
0
 10
-30.26213281846988
 20
-36.81469014017675
 30
0
 10
-30.16220279752891
 20
-37.44418425813092
 30
0
 10
-30.15878689329074
 20
-37.46570223246111
 30
0
 10
-30.15539491504012
 20
-37.48722664236607
 30
0
 10
-30.15202666287724
 20
-37.50875743407634
 30
0
 10
-30.10410462055313
 20
-37.81508827325229
 30
0
 10
-30.06108647074168
 20
-38.12270060970482
 30
0
 10
-30.02214152636844
 20
-38.43147459951594
 30
0
 10
-30.0196790631294
 20
-38.45099817597291
 30
0
 10
-30.01723704745398
 20
-38.47052611968169
 30
0
 10
-30.01481446630813
 20
-38.49005817389929
 30
0
 10
-29.99444608001318
 20
-38.65427823567911
 30
0
 10
-29.97553912448281
 20
-38.81876460691772
 30
0
 10
-29.95750190769733
 20
-38.98337579874266
 30
0
 10
-29.94137122789915
 20
-39.13058755863365
 30
0
 10
-29.9258953388463
 20
-39.27790365618657
 30
0
 10
-29.91071683000961
 20
-39.42520213305296
 30
0
 10
-29.90892283317432
 20
-39.44261181434547
 30
0
 10
-29.90712904439619
 20
-39.46002149259814
 30
0
 10
-29.90533553955299
 20
-39.47743115552396
 30
0
 10
-29.63384992240983
 20
-42.11275890587377
 30
0
 10
-29.36236430525298
 20
-44.74808665622216
 30
0
 10
-29.09087868810322
 20
-47.38341440657129
 30
0
  0
SPLINE
  5
5B
100
AcDbEntity
  8
0
  6
ByLayer
 62
  256
370
   -1
100
AcDbSpline
210
0
220
0
230
0
 70
    8
 71
    3
 72
   29
 73
   25
 74
    0
 42
1e-07
 43
1e-07
 40
0
 40
0
 40
0
 40
0
 40
0.0004929
 40
0.0004929
 40
0.0004929
 40
0.0009856999999999999
 40
0.0009856999999999999
 40
0.0009856999999999999
 40
0.0014786
 40
0.0014786
 40
0.0014786
 40
0.0019715
 40
0.0019715
 40
0.0019715
 40
0.0024644
 40
0.0024644
 40
0.0024644
 40
0.0029572
 40
0.0029572
 40
0.0029572
 40
0.0034501
 40
0.0034501
 40
0.0034501
 40
0.003942999999999999
 40
0.003942999999999999
 40
0.003942999999999999
 40
0.003942999999999999
 10
-29.09087868810322
 20
-47.38341440657128
 30
0
 10
-29.07380043031958
 20
-47.5491941157772
 30
0
 10
-29.04180230422453
 20
-47.71082139602603
 30
0
 10
-28.99544344410231
 20
-47.86845705946597
 30
0
 10
-28.9490845839801
 20
-48.02609272290592
 30
0
 10
-28.88776662183397
 20
-48.18086397429039
 30
0
 10
-28.81267548196134
 20
-48.32878686553038
 30
0
 10
-28.73758434208871
 20
-48.47670975677038
 30
0
 10
-28.64993453483688
 20
-48.61587929249237
 30
0
 10
-28.55005118048743
 20
-48.74652208011094
 30
0
 10
-28.45016782613797
 20
-48.87716486772949
 30
0
 10
-28.33668404036926
 20
-49.00039438462662
 30
0
 10
-28.21397981493217
 20
-49.11112399082772
 30
0
 10
-28.09127558949509
 20
-49.22185359702883
 30
0
 10
-27.95971672816181
 20
-49.32030421815249
 30
0
 10
-27.8193910813736
 20
-49.40659767848536
 30
0
 10
-27.67906543458539
 20
-49.49289113881824
 30
0
 10
-27.52855688759157
 20
-49.56734915765065
 30
0
 10
-27.37473741250566
 20
-49.62654830696228
 30
0
 10
-27.22091793741974
 20
-49.68574745627389
 30
0
 10
-27.06286929692158
 20
-49.73065626341577
 30
0
 10
-26.90050628869283
 20
-49.76097986847069
 30
0
 10
-26.73814328046407
 20
-49.79130347352562
 30
0
 10
-26.5712477113602
 20
-49.80677796958851
 30
0
 10
-26.4045913686249
 20
-49.80677280926113
 30
0
  0
LINE
  5
5C
100
AcDbEntity
  8
0
  6
ByLayer
 62
  256
370
   -1
100
AcDbLine
 10
-26.4045913686249
 20
-49.80677280926113
 11
26.40508840520971
 21
-49.80513761655483
  0
CIRCLE
  5
5D
100
AcDbEntity
  8
0
  6
ByLayer
 62
  256
370
   -1
100
AcDbCircle
 10
16.00002152211715
 20
-15.9999810737871
 40
3.249999999999998
  0
CIRCLE
  5
5E
100
AcDbEntity
  8
0
  6
ByLayer
 62
  256
370
   -1
100
AcDbCircle
 10
7.086141216305907e-05
 20
16.0000435958129
 40
3.249999999999999
  0
CIRCLE
  5
5F
100
AcDbEntity
  8
0
  6
ByLayer
 62
  256
370
   -1
100
AcDbCircle
 10
8.000070861402662
 20
16.0000312609939
 40
3.249999999999999
  0
CIRCLE
  5
60
100
AcDbEntity
  8
0
  6
ByLayer
 62
  256
370
   -1
100
AcDbCircle
 10
16.00007086139315
 20
16.0000189261749
 40
3.249999999999999
  0
CIRCLE
  5
61
100
AcDbEntity
  8
0
  6
ByLayer
 62
  256
370
   -1
100
AcDbCircle
 10
16.00005852657415
 20
8.000018926184389
 40
3.249999999999999
  0
CIRCLE
  5
62
100
AcDbEntity
  8
0
  6
ByLayer
 62
  256
370
   -1
100
AcDbCircle
 10
8.000058526583661
 20
8.000031261003389
 40
3.249999999999999
  0
CIRCLE
  5
63
100
AcDbEntity
  8
0
  6
ByLayer
 62
  256
370
   -1
100
AcDbCircle
 10
4.619177416398397e-05
 20
4.35958319538834e-05
 40
3.249999999999999
  0
CIRCLE
  5
64
100
AcDbEntity
  8
0
  6
ByLayer
 62
  256
370
   -1
100
AcDbCircle
 10
8.000046191764662
 20
3.12610129265903e-05
 40
3.249999999999999
  0
CIRCLE
  5
65
100
AcDbEntity
  8
0
  6
ByLayer
 62
  256
370
   -1
100
AcDbCircle
 10
16.00004619175515
 20
1.8926193899297e-05
 40
3.249999999999999
  0
CIRCLE
  5
66
100
AcDbEntity
  8
0
  6
ByLayer
 62
  256
370
   -1
100
AcDbCircle
 10
16.00003385693615
 20
-7.999981073796602
 40
3.249999999999999
  0
CIRCLE
  5
67
100
AcDbEntity
  8
0
  6
ByLayer
 62
  256
370
   -1
100
AcDbCircle
 10
8.000033856945661
 20
-7.9999687389776
 40
3.249999999999999
  0
CIRCLE
  5
68
100
AcDbEntity
  8
0
  6
ByLayer
 62
  256
370
   -1
100
AcDbCircle
 10
3.385695516444626e-05
 20
-7.9999564041586
 40
3.249999999999999
  0
CIRCLE
  5
69
100
AcDbEntity
  8
0
  6
ByLayer
 62
  256
370
   -1
100
AcDbCircle
 10
2.152213616490876e-05
 20
-15.9999564041491
 40
3.249999999999998
  0
CIRCLE
  5
6A
100
AcDbEntity
  8
0
  6
ByLayer
 62
  256
370
   -1
100
AcDbCircle
 10
8.000021522126662
 20
-15.9999687389681
 40
3.249999999999998
  0
CIRCLE
  5
6B
100
AcDbEntity
  8
0
  6
ByLayer
 62
  256
370
   -1
100
AcDbCircle
 10
5.852659316352146e-05
 20
8.00004359582239
 40
3.249999999999999
  0
CIRCLE
  5
6C
100
AcDbEntity
  8
0
  6
ByLayer
 62
  256
370
   -1
100
AcDbCircle
 10
33.00000361775135
 20
-22.02208588842235
 40
2.000000000000002
  0
CIRCLE
  5
6D
100
AcDbEntity
  8
0
  6
ByLayer
 62
  256
370
   -1
100
AcDbCircle
 10
33.00000361775135
 20
25.97791411157766
 40
2.000000000000002
  0
CIRCLE
  5
6E
100
AcDbEntity
  8
0
  6
ByLayer
 62
  256
370
   -1
100
AcDbCircle
 10
-7.999953808216329
 20
5.593065092566541e-05
 40
3.249999999999999
  0
CIRCLE
  5
6F
100
AcDbEntity
  8
0
  6
ByLayer
 62
  256
370
   -1
100
AcDbCircle
 10
-7.999966143035327
 20
-7.999944069339601
 40
3.249999999999999
  0
CIRCLE
  5
70
100
AcDbEntity
  8
0
  6
ByLayer
 62
  256
370
   -1
100
AcDbCircle
 10
-7.999978477854317
 20
-15.9999440693301
 40
3.249999999999998
  0
CIRCLE
  5
71
100
AcDbEntity
  8
0
  6
ByLayer
 62
  256
370
   -1
100
AcDbCircle
 10
-15.99997847784485
 20
-15.9999317345111
 40
3.249999999999998
  0
CIRCLE
  5
72
100
AcDbEntity
  8
0
  6
ByLayer
 62
  256
370
   -1
100
AcDbCircle
 10
-15.99996614302585
 20
-7.9999317345206
 40
3.249999999999999
  0
CIRCLE
  5
73
100
AcDbEntity
  8
0
  6
ByLayer
 62
  256
370
   -1
100
AcDbCircle
 10
-15.99995380820675
 20
6.826546989744739e-05
 40
3.249999999999999
  0
CIRCLE
  5
74
100
AcDbEntity
  8
0
  6
ByLayer
 62
  256
370
   -1
100
AcDbCircle
 10
-7.999941473397328
 20
8.000055930641389
 40
3.249999999999999
  0
CIRCLE
  5
75
100
AcDbEntity
  8
0
  6
ByLayer
 62
  256
370
   -1
100
AcDbCircle
 10
-15.99994147338775
 20
8.00006826546039
 40
3.249999999999999
  0
CIRCLE
  5
76
100
AcDbEntity
  8
0
  6
ByLayer
 62
  256
370
   -1
100
AcDbCircle
 10
-15.99992913856885
 20
16.0000682654509
 40
3.249999999999999
  0
CIRCLE
  5
77
100
AcDbEntity
  8
0
  6
ByLayer
 62
  256
370
   -1
100
AcDbCircle
 10
-7.999929138578327
 20
16.0000559306319
 40
3.249999999999999
  0
CIRCLE
  5
78
100
AcDbEntity
  8
0
  6
ByLayer
 62
  256
370
   -1
100
AcDbCircle
 10
-32.99999638224865
 20
25.97791411157765
 40
2.000000000000002
  0
CIRCLE
  5
79
100
AcDbEntity
  8
0
  6
ByLayer
 62
  256
370
   -1
100
AcDbCircle
 10
-32.99999638224865
 20
-22.02208588842235
 40
2.000000000000002
  0
CIRCLE
  5
7A
100
AcDbEntity
  8
0
  6
ByLayer
 62
  256
370
   -1
100
AcDbCircle
 10
22.00004619178772
 20
22.00004359582409
 40
2.500000000000002
  0
CIRCLE
  5
7B
100
AcDbEntity
  8
0
  6
ByLayer
 62
  256
370
   -1
100
AcDbCircle
 10
22.00004619178774
 20
-21.99995640417591
 40
2.500000000000002
  0
CIRCLE
  5
7C
100
AcDbEntity
  8
0
  6
ByLayer
 62
  256
370
   -1
100
AcDbCircle
 10
-21.99995380821226
 20
-21.99995640417592
 40
2.500000000000002
  0
CIRCLE
  5
7D
100
AcDbEntity
  8
0
  6
ByLayer
 62
  256
370
   -1
100
AcDbCircle
 10
-21.99995380821228
 20
22.00004359582408
 40
2.500000000000002
  0
LINE
  5
7E
100
AcDbEntity
  8
marks
  6
ByLayer
 62
  256
370
  200
100
AcDbLine
 10
-200
 20
0
 11
200
 21
0
  0
LINE
  5
7F
100
AcDbEntity
  8
marks
  6
ByLayer
 62
  256
370
  200
100
AcDbLine
 10
0
 20
-75
 11
0
 21
200
  0
LINE
  5
80
100
AcDbEntity
  8
marks
  6
ByLayer
 62
  256
370
  120
100
AcDbLine
 10
-200
 20
50
 11
200
 21
50
  0
LINE
  5
81
100
AcDbEntity
  8
marks
  6
ByLayer
 62
  256
370
  120
100
AcDbLine
 10
-200
 20
100
 11
200
 21
100
  0
LINE
  5
82
100
AcDbEntity
  8
marks
  6
ByLayer
 62
  256
370
  120
100
AcDbLine
 10
-200
 20
150
 11
200
 21
150
  0
LINE
  5
83
100
AcDbEntity
  8
marks
  6
ByLayer
 62
  256
370
  120
100
AcDbLine
 10
-200
 20
200
 11
200
 21
200
  0
LINE
  5
84
100
AcDbEntity
  8
marks
  6
ByLayer
 62
  256
370
   40
100
AcDbLine
 10
-200
 20
25
 11
200
 21
25
  0
LINE
  5
85
100
AcDbEntity
  8
marks
  6
ByLayer
 62
  256
370
   40
100
AcDbLine
 10
-200
 20
75
 11
200
 21
75
  0
LINE
  5
86
100
AcDbEntity
  8
marks
  6
ByLayer
 62
  256
370
   40
100
AcDbLine
 10
-200
 20
125
 11
200
 21
125
  0
LINE
  5
87
100
AcDbEntity
  8
marks
  6
ByLayer
 62
  256
370
   40
100
AcDbLine
 10
-200
 20
175
 11
200
 21
175
  0
LINE
  5
88
100
AcDbEntity
  8
marks
  6
ByLayer
 62
  256
370
  120
100
AcDbLine
 10
-50
 20
0
 11
-50
 21
200
  0
LINE
  5
89
100
AcDbEntity
  8
marks
  6
ByLayer
 62
  256
370
  120
100
AcDbLine
 10
-100
 20
0
 11
-100
 21
200
  0
LINE
  5
8A
100
AcDbEntity
  8
marks
  6
ByLayer
 62
  256
370
  120
100
AcDbLine
 10
-150
 20
0
 11
-150
 21
200
  0
LINE
  5
8B
100
AcDbEntity
  8
marks
  6
ByLayer
 62
  256
370
  120
100
AcDbLine
 10
-200
 20
0
 11
-200
 21
200
  0
LINE
  5
8C
100
AcDbEntity
  8
marks
  6
ByLayer
 62
  256
370
  120
100
AcDbLine
 10
50
 20
0
 11
50
 21
200
  0
LINE
  5
8D
100
AcDbEntity
  8
marks
  6
ByLayer
 62
  256
370
  120
100
AcDbLine
 10
100
 20
0
 11
100
 21
200
  0
LINE
  5
8E
100
AcDbEntity
  8
marks
  6
ByLayer
 62
  256
370
  120
100
AcDbLine
 10
150
 20
0
 11
150
 21
200
  0
LINE
  5
8F
100
AcDbEntity
  8
marks
  6
ByLayer
 62
  256
370
  120
100
AcDbLine
 10
200
 20
0
 11
200
 21
200
  0
LINE
  5
90
100
AcDbEntity
  8
marks
  6
ByLayer
 62
  256
370
   40
100
AcDbLine
 10
-25
 20
0
 11
-25
 21
200
  0
LINE
  5
91
100
AcDbEntity
  8
marks
  6
ByLayer
 62
  256
370
   40
100
AcDbLine
 10
-75
 20
0
 11
-75
 21
200
  0
LINE
  5
92
100
AcDbEntity
  8
marks
  6
ByLayer
 62
  256
370
   40
100
AcDbLine
 10
-125
 20
0
 11
-125
 21
200
  0
LINE
  5
93
100
AcDbEntity
  8
marks
  6
ByLayer
 62
  256
370
   40
100
AcDbLine
 10
-175
 20
0
 11
-175
 21
200
  0
LINE
  5
94
100
AcDbEntity
  8
marks
  6
ByLayer
 62
  256
370
   40
100
AcDbLine
 10
25
 20
0
 11
25
 21
200
  0
LINE
  5
95
100
AcDbEntity
  8
marks
  6
ByLayer
 62
  256
370
   40
100
AcDbLine
 10
75
 20
0
 11
75
 21
200
  0
LINE
  5
96
100
AcDbEntity
  8
marks
  6
ByLayer
 62
  256
370
   40
100
AcDbLine
 10
125
 20
0
 11
125
 21
200
  0
LINE
  5
97
100
AcDbEntity
  8
marks
  6
ByLayer
 62
  256
370
   40
100
AcDbLine
 10
175
 20
0
 11
175
 21
200
  0
TEXT
  5
98
100
AcDbEntity
  8
marks
  6
ByLayer
 62
  256
370
  100
100
AcDbText
 10
-14
 20
55
 30
0
 40
10
  1
x: 50
 50
0
 41
1
 51
0
  7
amiri-regular
 71
    0
 72
    4
 11
-14
 21
55
 31
0
210
0
220
0
230
1
100
AcDbText
  0
TEXT
  5
99
100
AcDbEntity
  8
marks
  6
ByLayer
 62
  256
370
  100
100
AcDbText
 10
-16
 20
155
 30
0
 40
10
  1
x: 150
 50
0
 41
1
 51
0
  7
amiri-regular
 71
    0
 72
    4
 11
-16
 21
155
 31
0
210
0
220
0
230
1
100
AcDbText
  0
TEXT
  5
9A
100
AcDbEntity
  8
marks
  6
ByLayer
 62
  256
370
  100
100
AcDbText
 10
-50
 20
40
 30
0
 40
10
  1
y: 50
 50
0
 41
1
 51
0
  7
amiri-regular
 71
    0
 72
    4
 11
-50
 21
40
 31
0
210
0
220
0
230
1
100
AcDbText
  0
TEXT
  5
9B
100
AcDbEntity
  8
marks
  6
ByLayer
 62
  256
370
  100
100
AcDbText
 10
-100
 20
40
 30
0
 40
10
  1
y: 100
 50
0
 41
1
 51
0
  7
amiri-regular
 71
    0
 72
    4
 11
-100
 21
40
 31
0
210
0
220
0
230
1
100
AcDbText
  0
TEXT
  5
9C
100
AcDbEntity
  8
marks
  6
ByLayer
 62
  256
370
  100
100
AcDbText
 10
-150
 20
40
 30
0
 40
10
  1
y: 150
 50
0
 41
1
 51
0
  7
amiri-regular
 71
    0
 72
    4
 11
-150
 21
40
 31
0
210
0
220
0
230
1
100
AcDbText
  0
TEXT
  5
9D
100
AcDbEntity
  8
marks
  6
ByLayer
 62
  256
370
  100
100
AcDbText
 10
-13
 20
105
 30
0
 40
10
  1
x: 100
 50
0
 41
1
 51
0
  7
amiri-regular
 71
    0
 72
    4
 11
-13
 21
105
 31
0
210
0
220
0
230
1
100
AcDbText
  0
ENDSEC
  0
SECTION
  2
OBJECTS
  0
DICTIONARY
  5
C
330
0
100
AcDbDictionary
281
    1
  3
ACAD_GROUP
350
D
  0
DICTIONARY
  5
D
330
C
100
AcDbDictionary
281
    1
  0
PLOTSETTINGS
  5
9E
100
AcDbPlotSettings
  6
1x1
 40
0
 41
0
 42
0
 43
0
  0
ENDSEC
  0
EOF
