0
SECTION
2
HEADER
9
$INSUNITS
70
4
9
$ACADVER
1
AC1014
9
$HANDSEED
5
FFFF
0
ENDSEC
0
SECTION
2
TABLES
0
TABLE
2
VPORT
5
8
100
AcDbSymbolTable
0
ENDTAB
0
TABLE
2
LTYPE
5
5
100
AcDbSymbolTable
0
LTYPE
5
14
100
AcDbSymbolTableRecord
100
AcDbLinetypeTableRecord
2
BYBLOCK
70
0
0
LTYPE
5
15
100
AcDbSymbolTableRecord
100
AcDbLinetypeTableRecord
2
BYLAYER
70
0
0
ENDTAB
0
TABLE
2
LAYER
5
2
100
AcDbSymbolTable
70
2
0
LAYER
5
50
100
AcDbSymbolTableRecord
100
AcDbLayerTableRecord
2
0
70
0
6
CONTINUOUS
0
ENDTAB
0
TABLE
2
STYLE
5
3
100
AcDbSymbolTable
70
1
0
STYLE
5
11
100
AcDbSymbolTableRecord
100
AcDbTextStyleTableRecord
2
STANDARD
70
0
0
ENDTAB
0
TABLE
2
VIEW
5
6
100
AcDbSymbolTable
70
0
0
ENDTAB
0
TABLE
2
UCS
5
7
100
AcDbSymbolTable
70
0
0
ENDTAB
0
TABLE
2
APPID
5
9
100
AcDbSymbolTable
70
2
0
APPID
5
12
100
AcDbSymbolTableRecord
100
AcDbRegAppTableRecord
2
ACAD
70
0
0
ENDTAB
0
TABLE
2
DIMSTYLE
5
A
100
AcDbSymbolTable
70
1
0
ENDTAB
0
TABLE
2
BLOCK_RECORD
5
1
100
AcDbSymbolTable
70
1
0
BLOCK_RECORD
5
1F
100
AcDbSymbolTableRecord
100
AcDbBlockTableRecord
2
*MODEL_SPACE
0
BLOCK_RECORD
5
1B
100
AcDbSymbolTableRecord
100
AcDbBlockTableRecord
2
*PAPER_SPACE
0
ENDTAB
0
ENDSEC
0
SECTION
2
BLOCKS
0
BLOCK
5
20
100
AcDbEntity
100
AcDbBlockBegin
2
*MODEL_SPACE
0
ENDBLK
5
21
100
AcDbEntity
100
AcDbBlockEnd
0
BLOCK
5
1C
100
AcDbEntity
100
AcDbBlockBegin
2
*PAPER_SPACE
0
ENDBLK
5
1D
100
AcDbEntity
100
AcDbBlockEnd
0
ENDSEC
0
SECTION
2
ENTITIES
0
LWPOLYLINE
5
100
100
AcDbEntity
8
0
100
AcDbPolyline
90
34
70
1
43
0.0
10
-12.99088164888259
20
-140.70945506749663
10
-15.990881648867303
20
-140.70945506750007
10
-15.990881648860215
20
-146.9226585030965
10
-12.763327090713318
20
-146.92265850309278
10
-12.763327090709875
20
-149.92265850309278
10
-2.7633270907098773
20
-149.92265850308132
10
-2.7633270907133225
20
-146.92265850308129
10
9.2366729092866837
20
-146.92265850306754
10
9.2366729092901281
20
-149.92265850306754
10
19.236672909290125
20
-149.92265850305606
10
19.236672909286682
20
-146.92265850305606
10
22.464227467433581
20
-146.92265850305236
10
22.464227467411199
20
-140.70945506745596
10
19.464227467426486
20
-140.7094550674594
10
19.464227467399695
20
-130.7094550674594
10
22.464227467389392
20
-130.70945506745596
10
22.464227467377903
20
-120.70945506745595
10
19.464227467388209
20
-120.7094550674594
10
19.464227467392025
20
-110.7094550674594
10
22.464227467376737
20
-110.70945506745595
10
22.464227467227001
20
33.077341496947653
10
17.464227467226991
20
33.077341496941919
10
17.464227467216432
20
42.277341496941901
42
0.41421356237309748
10
16.664227467215515
20
43.077341496941003
10
-1.7357725327844897
20
43.077341496919885
42
0.41421356237309404
10
-2.5357725327835725
20
42.277341496918972
10
-2.5357725327730134
20
33.077341496918962
10
-15.990881649066802
20
33.077341496903507
10
-15.990881648901764
20
-110.70945506750007
10
-12.990881648917052
20
-110.70945506749663
10
-12.990881648915888
20
-120.70945506749663
10
-15.990881648905582
20
-120.70945506750007
10
-15.990881648894096
20
-130.70945506750007
10
-12.9908816489044
20
-130.70945506749663
0
ENDSEC
0
SECTION
2
OBJECTS
0
DICTIONARY
5
C
100
AcDbDictionary
3
ACAD_GROUP
350
D
3
ACAD_MLINESTYLE
350
17
0
DICTIONARY
5
D
100
AcDbDictionary
0
DICTIONARY
5
1A
330
C
100
AcDbDictionary
0
DICTIONARY
5
17
100
AcDbDictionary
0
ENDSEC
0
EOF
